<svg width="156" height="82" viewBox="0 0 156 82" fill="none" xmlns="http://www.w3.org/2000/svg">
    <g opacity=".6">
        <path opacity=".41" d="M49.935 23.313c4.056-7.538 9.594-14.606 17.188-18.628C74.718.663 84.64.246 91.611 5.26c4.497 3.234 7.426 8.358 12.159 11.239 9.663 5.882 22.461.353 33.402 3.287 7.834 2.1 14.047 8.602 16.842 16.167 2.795 7.565 2.443 16.033.171 23.767-2.272 7.737-6.363 14.828-10.941 21.482" fill="#fff"/>
        <path opacity=".41" d="M11.272 80.433C5.728 73.212.9 65.001.098 55.956c-.803-9.045 3.344-19.005 11.665-22.769 4.433-2.003 9.899-2.308 13.18-5.883 3.105-3.386 3.107-8.468 4.583-12.804C32.374 6.127 41.19.625 50.07.057c8.882-.568 17.625 3.147 24.636 8.591 4.573 3.55 8.847 8.633 8.28 14.373" fill="#fff"/>
        <path d="M144.969 81.246c.002-.273.011-.545.011-.818 0-37.29-30.438-67.518-67.986-67.518-37.549 0-67.99 30.229-67.99 67.518 0 .273.008.545.012.818H144.97z" fill="#FFE1D8"/>
        <path d="M17.79 81.456c-.586 0-1.107-.429-1.185-.974l-2.6-17.862a.871.871 0 0 1 .206-.713.993.993 0 0 1 .754-.325h27.779c.586 0 1.107.428 1.185.973l2.6 17.863a.871.871 0 0 1-.206.712.993.993 0 0 1-.754.326H17.79z" fill="#FFA68A"/>
        <path d="M42.744 61.813c.466 0 .895.349.957.777l2.6 17.863c.062.428-.266.776-.732.776H17.79c-.466 0-.895-.348-.957-.776l-2.6-17.863c-.061-.428.266-.777.732-.777h27.779zm0-.458H14.965c-.367 0-.706.147-.93.406a1.1 1.1 0 0 0-.258.895l2.6 17.863c.094.655.717 1.168 1.413 1.168h27.78c.366 0 .705-.147.929-.405a1.1 1.1 0 0 0 .258-.896l-2.6-17.862c-.094-.656-.716-1.169-1.413-1.169z" fill="#1D2138"/>
        <g>
            <path d="M41.254 52.092h-22.51a.23.23 0 0 0-.23.229v26.53c0 .126.103.228.23.228h22.51a.23.23 0 0 0 .23-.229V52.32a.23.23 0 0 0-.23-.228z" fill="#fff"/>
            <path d="M41.256 52.321v26.53H18.744V52.32h22.51m0-.458h-22.51a.461.461 0 0 0-.46.458v26.53c0 .252.207.458.46.458h22.51a.46.46 0 0 0 .46-.458V52.32a.461.461 0 0 0-.46-.458z" fill="#1D2138"/>
            <path d="M29.394 54.967H20.55a.14.14 0 0 0-.14.14c0 .075.061.14.14.14h8.844a.14.14 0 0 0 .141-.14.14.14 0 0 0-.14-.14zM39.706 72.875H30.86a.14.14 0 0 0-.14.14c0 .075.062.14.14.14h8.845a.14.14 0 0 0 .14-.14.14.14 0 0 0-.14-.14zM39.937 53.504h-7.186a.126.126 0 0 0-.127.126v.027c0 .07.057.126.127.126h7.186c.07 0 .127-.056.127-.126v-.027a.126.126 0 0 0-.127-.126zM39.866 57.157H20.49a.156.156 0 0 1-.157-.156c0-.087.072-.155.157-.155h19.375c.087 0 .157.07.157.155a.156.156 0 0 1-.157.156zM39.866 58.253H20.49a.156.156 0 0 1-.157-.156c0-.087.072-.156.157-.156h19.375c.087 0 .157.071.157.156a.156.156 0 0 1-.157.156zM39.866 59.456H20.49a.156.156 0 0 1-.157-.156c0-.087.072-.155.157-.155h19.375c.087 0 .157.07.157.155a.156.156 0 0 1-.157.156zM39.866 60.503H20.49a.156.156 0 0 1-.157-.156c0-.087.072-.156.157-.156h19.375c.087 0 .157.071.157.156a.156.156 0 0 1-.157.156zM39.866 61.651H20.49a.156.156 0 0 1-.157-.155c0-.087.072-.156.157-.156h19.375c.087 0 .157.07.157.156a.156.156 0 0 1-.157.155zM39.866 65.206H20.49a.156.156 0 0 1-.157-.156c0-.087.072-.156.157-.156h19.375c.087 0 .157.072.157.156a.156.156 0 0 1-.157.156zM39.866 66.306H20.49a.156.156 0 0 1-.157-.156c0-.087.072-.156.157-.156h19.375c.087 0 .157.071.157.156a.156.156 0 0 1-.157.156zM39.866 67.509H20.49a.156.156 0 0 1-.157-.156c0-.087.072-.156.157-.156h19.375c.087 0 .157.071.157.156a.157.157 0 0 1-.157.156zM39.866 68.554H20.49a.156.156 0 0 1-.157-.156c0-.087.072-.156.157-.156h19.375c.087 0 .157.071.157.156a.156.156 0 0 1-.157.156zM39.866 69.702H20.49a.156.156 0 0 1-.157-.156c0-.087.072-.155.157-.155h19.375c.087 0 .157.07.157.155a.156.156 0 0 1-.157.156z" fill="#1D2138"/>
        </g>
        <g>
            <path d="M42.464 51.514H19.955a.23.23 0 0 0-.23.229v26.53c0 .126.103.228.23.228h22.51a.23.23 0 0 0 .23-.229v-26.53a.23.23 0 0 0-.23-.228z" fill="#fff"/>
            <path d="M42.467 51.743v26.53H19.955v-26.53h22.51m0-.458h-22.51a.461.461 0 0 0-.46.458v26.53c0 .252.207.458.46.458h22.51a.461.461 0 0 0 .46-.458v-26.53a.461.461 0 0 0-.46-.458z" fill="#1D2138"/>
            <path d="M30.605 54.39h-8.844a.14.14 0 0 0-.14.14c0 .076.061.14.14.14h8.844a.14.14 0 0 0 .141-.14.14.14 0 0 0-.14-.14zM40.917 72.299h-8.845a.14.14 0 0 0-.14.14c0 .075.062.14.14.14h8.845a.14.14 0 0 0 .14-.14.14.14 0 0 0-.14-.14zM41.147 52.928h-7.186a.126.126 0 0 0-.127.126v.027c0 .07.057.126.127.126h7.186c.07 0 .127-.056.127-.126v-.027a.126.126 0 0 0-.127-.126zM41.076 56.581H21.7a.156.156 0 0 1-.157-.156c0-.087.071-.155.157-.155h19.375c.087 0 .157.07.157.155a.156.156 0 0 1-.157.156zM41.076 57.677H21.7a.156.156 0 0 1-.157-.156c0-.087.071-.156.157-.156h19.375c.087 0 .157.071.157.156a.156.156 0 0 1-.157.156zM41.076 58.88H21.7a.157.157 0 0 1-.157-.156c0-.087.071-.156.157-.156h19.375c.087 0 .157.071.157.156a.157.157 0 0 1-.157.156zM41.076 59.927H21.7a.156.156 0 0 1-.157-.156c0-.087.071-.156.157-.156h19.375c.087 0 .157.071.157.156a.156.156 0 0 1-.157.156zM41.076 61.077H21.7a.156.156 0 0 1-.157-.156c0-.087.071-.155.157-.155h19.375c.087 0 .157.07.157.155a.156.156 0 0 1-.157.156zM41.076 64.632H21.7a.156.156 0 0 1-.157-.156c0-.087.071-.156.157-.156h19.375c.087 0 .157.071.157.156a.156.156 0 0 1-.157.156zM41.076 65.728H21.7a.156.156 0 0 1-.157-.156c0-.087.071-.156.157-.156h19.375c.087 0 .157.071.157.156a.156.156 0 0 1-.157.156zM41.076 66.933H21.7a.156.156 0 0 1-.157-.156c0-.087.071-.156.157-.156h19.375c.087 0 .157.071.157.156a.156.156 0 0 1-.157.156zM41.076 67.978H21.7a.156.156 0 0 1-.157-.156c0-.087.071-.156.157-.156h19.375c.087 0 .157.071.157.156a.156.156 0 0 1-.157.156zM41.076 69.128H21.7a.156.156 0 0 1-.157-.156c0-.087.071-.156.157-.156h19.375c.087 0 .157.071.157.156a.156.156 0 0 1-.157.156z" fill="#1D2138"/>
        </g>
        <g>
            <path d="M43.992 51.15h-22.51a.23.23 0 0 0-.23.23v26.529c0 .126.103.229.23.229h22.51a.23.23 0 0 0 .23-.23V51.38a.23.23 0 0 0-.23-.229z" fill="#fff"/>
            <path d="M43.994 51.38v26.53h-22.51V51.38h22.51zm0-.458h-22.51a.461.461 0 0 0-.46.458v26.53c0 .251.207.457.46.457h22.51a.46.46 0 0 0 .461-.458V51.38a.46.46 0 0 0-.461-.457z" fill="#1D2138"/>
            <path d="M32.133 54.025h-8.845a.14.14 0 0 0-.14.14c0 .076.062.14.14.14h8.845a.14.14 0 0 0 .14-.14.14.14 0 0 0-.14-.14zM42.444 71.934H33.6a.14.14 0 0 0-.141.14c0 .075.062.139.14.139h8.845a.14.14 0 0 0 .14-.14.14.14 0 0 0-.14-.14zM42.675 52.563h-7.187a.126.126 0 0 0-.127.125v.028c0 .07.057.126.127.126h7.187c.07 0 .126-.056.126-.126v-.028a.126.126 0 0 0-.127-.126zM42.603 56.216H23.228a.156.156 0 0 1-.157-.156c0-.087.072-.156.157-.156h19.375c.088 0 .157.071.157.156a.156.156 0 0 1-.157.156zM42.603 57.312H23.228a.156.156 0 0 1-.157-.156c0-.087.072-.156.157-.156h19.375c.088 0 .157.071.157.156a.156.156 0 0 1-.157.156zM42.603 58.515H23.228a.156.156 0 0 1-.157-.156c0-.087.072-.156.157-.156h19.375c.088 0 .157.071.157.156a.156.156 0 0 1-.157.156zM42.603 59.562H23.228a.156.156 0 0 1-.157-.156c0-.087.072-.156.157-.156h19.375c.088 0 .157.071.157.156a.156.156 0 0 1-.157.156zM42.603 60.712H23.228a.156.156 0 0 1-.157-.156c0-.087.072-.156.157-.156h19.375c.088 0 .157.071.157.156a.156.156 0 0 1-.157.156zM42.603 64.267H23.228a.156.156 0 0 1-.157-.156c0-.087.072-.156.157-.156h19.375c.088 0 .157.071.157.156a.156.156 0 0 1-.157.156zM42.603 65.364H23.228a.156.156 0 0 1-.157-.156c0-.087.072-.155.157-.155h19.375c.088 0 .157.07.157.156a.156.156 0 0 1-.157.155zM42.603 66.567H23.228a.156.156 0 0 1-.157-.155c0-.087.072-.156.157-.156h19.375c.088 0 .157.07.157.156a.157.157 0 0 1-.157.155zM42.603 67.612H23.228a.156.156 0 0 1-.157-.155c0-.087.072-.156.157-.156h19.375c.088 0 .157.07.157.156a.156.156 0 0 1-.157.155zM42.603 68.76H23.228a.156.156 0 0 1-.157-.155c0-.087.072-.156.157-.156h19.375c.088 0 .157.071.157.156a.156.156 0 0 1-.157.156z" fill="#1D2138"/>
        </g>
        <g style="mix-blend-mode:multiply" opacity=".75" fill="#fff">
            <path d="M104.923 36.974c-1.815 1.34-3.914 2.49-6.287 3.413-.062.025-.099.087-.08.14.018.052.085.075.147.052 2.378-.923 4.481-2.075 6.301-3.417a.137.137 0 0 0 .046-.158c-.023-.05-.078-.064-.127-.03zM119.746 43.982a27.45 27.45 0 0 1-5.115 5.138c-.053.04-.053.121 0 .178.053.058.14.071.193.032a27.532 27.532 0 0 0 5.127-5.146c.037-.048.021-.135-.037-.19-.057-.055-.134-.06-.17-.012h.002zM109.729 30.466a20.455 20.455 0 0 1-3.28 3.933.145.145 0 0 0-.034.147l.007.018c.018.046.064.055.104.02a20.537 20.537 0 0 0 3.288-3.932.19.19 0 0 0 .01-.158l-.01-.018c-.02-.046-.06-.049-.087-.007l.002-.003z"/>
            <path d="M110.973 32.916c-2.567 3.84-6.527 6.966-11.818 9.006-.071.028-.15 0-.173-.06-.023-.059.014-.132.086-.16 5.279-2.036 9.227-5.16 11.785-8.996.034-.053.09-.046.122.011a.219.219 0 0 1 0 .2h-.002z"/>
            <path d="M111.413 33.655c-2.604 3.85-6.6 6.99-11.932 9.044-.072.028-.153 0-.178-.061-.025-.062.011-.133.083-.16 5.318-2.053 9.306-5.189 11.898-9.034.035-.053.092-.046.127.011.034.058.037.15 0 .2h.002z"/>
            <path d="M111.925 34.47c-2.645 3.863-6.684 7.017-12.057 9.092-.072.027-.155 0-.185-.062-.027-.062.007-.135.081-.163 5.362-2.07 9.391-5.22 12.025-9.079.035-.052.095-.045.131.012.037.06.04.149.005.201v-.002z"/>
            <path d="M112.398 35.183c-2.678 3.875-6.753 7.045-12.166 9.136-.074.027-.157 0-.189-.064-.03-.062.005-.138.076-.165 5.401-2.087 9.465-5.252 12.133-9.123.037-.052.097-.045.137.012.039.06.043.149.006.201l.003.003z"/>
            <path d="M112.947 35.97c-2.717 3.891-6.829 7.077-12.286 9.189-.074.027-.161 0-.193-.065-.033-.064 0-.137.073-.167 5.445-2.105 9.548-5.286 12.254-9.173.036-.052.099-.045.143.014.041.06.046.151.009.204v-.002zM114.824 38.442c-2.83 3.944-7.064 7.192-12.65 9.372-.076.03-.171 0-.21-.066-.039-.065-.012-.142.065-.172 5.574-2.174 9.797-5.415 12.617-9.354.037-.053.109-.048.157.014.048.06.058.153.021.206z"/>
            <path d="M115.46 39.214c-2.867 3.962-7.135 7.233-12.76 9.434a.184.184 0 0 1-.215-.067c-.041-.066-.014-.144.062-.174 5.614-2.196 9.874-5.458 12.729-9.416.039-.052.11-.048.161.014.051.06.062.154.023.209z"/>
            <path d="M116.187 40.061c-2.904 3.986-7.214 7.28-12.883 9.508a.191.191 0 0 1-.219-.067c-.044-.066-.019-.144.058-.174 5.657-2.222 9.956-5.508 12.85-9.489.039-.053.113-.048.166.014.053.062.065.156.026.208h.002z"/>
            <path d="M116.847 40.801c-2.936 4.006-7.281 7.32-12.987 9.576a.2.2 0 0 1-.224-.066c-.046-.066-.02-.147.056-.176 5.694-2.247 10.03-5.557 12.956-9.556.04-.052.116-.048.171.014.055.062.069.156.028.208z"/>
            <path d="M117.599 41.62c-2.973 4.028-7.355 7.37-13.102 9.65-.079.03-.18 0-.229-.066-.048-.066-.025-.146.053-.178 5.736-2.275 10.109-5.61 13.07-9.631.039-.055.12-.048.175.013.058.062.072.156.033.211z"/>
        </g>
        <path d="M111.039 58.597a.262.262 0 0 1-.074-.011 51.619 51.619 0 0 1-3.863-1.484.22.22 0 0 1-.083-.062c-5.438-6.294-9.027-12.508-10.376-17.97a.232.232 0 0 1 .15-.273c5.95-1.988 10.475-5.483 13.088-10.11a.23.23 0 0 1 .201-.117h.011a.236.236 0 0 1 .201.135c2.641 5.88 7.952 12.188 15.364 18.241a.229.229 0 0 1 .044.307c-3.369 4.828-8.272 8.637-14.569 11.321a.252.252 0 0 1-.09.019l-.004.004z" fill="#fff"/>
        <path d="M110.082 28.802c2.546 5.669 7.728 12.034 15.429 18.325-3.224 4.62-8.067 8.514-14.47 11.242a51.42 51.42 0 0 1-3.847-1.478c-5.574-6.452-9.022-12.594-10.325-17.876 6.213-2.075 10.651-5.676 13.215-10.215m0-.458a.46.46 0 0 0-.401.233c-2.583 4.577-7.066 8.035-12.961 10.005a.455.455 0 0 0-.3.543c1.358 5.497 4.963 11.742 10.424 18.064a.465.465 0 0 0 .169.121c1.36.582 2.629 1.07 3.881 1.489a.465.465 0 0 0 .33-.012c6.337-2.7 11.273-6.536 14.668-11.401a.456.456 0 0 0-.086-.614c-7.382-6.033-12.673-12.31-15.299-18.158a.46.46 0 0 0-.399-.27H110.084z" fill="#1D2138"/>
        <path d="M105.156 36.859c-1.815 1.34-3.914 2.49-6.287 3.413-.063.025-.1.087-.081.14.018.052.085.075.148.052 2.377-.923 4.481-2.075 6.3-3.417a.135.135 0 0 0 .046-.158c-.023-.05-.078-.065-.126-.03zM119.978 43.869c-1.411 1.866-3.118 3.591-5.115 5.137-.053.041-.053.121 0 .179.053.057.141.07.194.032a27.532 27.532 0 0 0 5.127-5.147c.036-.048.02-.135-.037-.188-.058-.054-.134-.059-.171-.011l.002-.002zM109.959 30.353a20.486 20.486 0 0 1-3.279 3.933.145.145 0 0 0-.035.146l.007.019c.019.045.065.055.102.02a20.526 20.526 0 0 0 3.289-3.935.188.188 0 0 0 0-.174c-.021-.045-.06-.048-.088-.006l.004-.003z" fill="#1D2138"/>
        <path d="M111.202 32.803c-2.567 3.839-6.527 6.965-11.817 9.006-.072.027-.15 0-.173-.06-.023-.06.014-.133.085-.16 5.279-2.036 9.228-5.16 11.783-8.997.035-.052.09-.045.122.012a.213.213 0 0 1 0 .2z" fill="#1D2138"/>
        <path d="M111.644 33.541c-2.604 3.85-6.601 6.99-11.933 9.045-.072.028-.152 0-.178-.062-.025-.062.012-.133.083-.16 5.319-2.052 9.306-5.188 11.898-9.033.035-.053.093-.046.127.011.035.057.037.149 0 .2h.003z" fill="#1D2138"/>
        <path d="M112.157 34.354c-2.645 3.864-6.683 7.018-12.057 9.093-.071.027-.154 0-.184-.062-.028-.062.007-.135.08-.163 5.363-2.07 9.392-5.22 12.025-9.079.035-.053.095-.046.132.012.037.06.039.148.004.201v-.002z" fill="#1D2138"/>
        <path d="M112.63 35.07c-2.677 3.875-6.753 7.045-12.165 9.136-.074.027-.157 0-.19-.064-.03-.062.005-.138.077-.165 5.401-2.087 9.465-5.252 12.133-9.123.037-.053.097-.046.136.012.039.06.044.148.007.201l.002.002z" fill="#1D2138"/>
        <path d="M113.177 35.856c-2.717 3.892-6.829 7.078-12.285 9.19-.074.027-.162 0-.194-.065-.032-.064 0-.137.074-.167 5.445-2.105 9.548-5.286 12.253-9.173.037-.053.099-.046.143.014.042.06.046.15.009.204v-.003zM115.054 38.328c-2.83 3.944-7.064 7.192-12.65 9.373-.076.03-.17 0-.21-.067-.039-.064-.011-.142.065-.172 5.574-2.173 9.797-5.414 12.618-9.353.037-.053.108-.049.157.013.048.06.057.154.02.206z" fill="#1D2138"/>
        <path d="M115.691 39.096c-2.867 3.963-7.136 7.233-12.761 9.435-.076.03-.173 0-.214-.067-.042-.066-.014-.144.062-.174 5.613-2.197 9.873-5.458 12.728-9.416.039-.052.111-.048.162.014.05.06.062.153.023.208z" fill="#1D2138"/>
        <path d="M116.419 39.946c-2.903 3.985-7.214 7.279-12.883 9.507a.191.191 0 0 1-.219-.066c-.043-.066-.018-.144.058-.174 5.657-2.222 9.956-5.508 12.851-9.49.039-.052.113-.047.166.015.053.061.064.155.025.208h.002z" fill="#1D2138"/>
        <path d="M117.077 40.686c-2.936 4.006-7.281 7.32-12.986 9.576a.199.199 0 0 1-.224-.066c-.046-.066-.021-.147.055-.176 5.694-2.247 10.03-5.557 12.957-9.556.039-.053.115-.048.17.014.056.062.07.156.03.208h-.002z" fill="#1D2138"/>
        <path d="M117.828 41.502c-2.973 4.029-7.355 7.37-13.102 9.652-.078.03-.18 0-.228-.067-.049-.066-.025-.146.053-.179 5.736-2.274 10.108-5.609 13.07-9.63.039-.056.12-.049.175.013.058.062.071.156.032.211z" fill="#1D2138"/>
        <path d="M111.039 58.631a.268.268 0 0 1-.093-.018 50.515 50.515 0 0 0-3.828-1.47.23.23 0 0 1-.157-.209.23.23 0 0 1 .139-.22 45.768 45.768 0 0 1 1.863-.751.25.25 0 0 1 .081-.014c.062 0 .124.025.168.074.678.73 1.352 1.48 2 2.228.069.08.073.2.011.284a.234.234 0 0 1-.187.094l.003.002z" fill="#fff"/>
        <path d="M109.046 56.18a81.768 81.768 0 0 1 1.993 2.225 52.443 52.443 0 0 0-3.847-1.478c.606-.258 1.22-.508 1.854-.746zm0-.457a.446.446 0 0 0-.162.03c-.574.215-1.169.453-1.872.753a.458.458 0 0 0 .034.857c1.23.412 2.475.89 3.813 1.463a.462.462 0 0 0 .553-.151.458.458 0 0 0-.021-.57 83.09 83.09 0 0 0-2.004-2.236.46.46 0 0 0-.339-.146h-.002z" fill="#1D2138"/>
        <path d="M85.866 48.001a.226.226 0 0 1-.125-.037c-4.502-2.842-9.705-5.272-16.377-7.647a.227.227 0 0 1-.152-.209.23.23 0 0 1 .14-.217c6.4-2.691 11.996-9.755 16.18-20.428a.227.227 0 0 1 .151-.137.227.227 0 0 1 .203.039c4.336 3.286 7.879 7.844 10.83 13.934.024.05.03.108.014.16-2.13 7.719-5.758 12.607-10.781 14.526a.266.266 0 0 1-.083.016z" fill="#fff"/>
        <path d="M85.743 19.546c4.163 3.154 7.735 7.607 10.764 13.852-2.274 8.237-6.082 12.63-10.642 14.373-5.076-3.205-10.62-5.603-16.422-7.67 5.878-2.472 11.738-8.91 16.303-20.557m0-.458a.46.46 0 0 0-.429.29c-5.256 13.411-11.631 18.44-16.052 20.3a.458.458 0 0 0 .023.855c6.656 2.37 11.845 4.794 16.33 7.624a.462.462 0 0 0 .413.041c5.095-1.948 8.769-6.887 10.92-14.678a.454.454 0 0 0-.03-.321c-2.968-6.125-6.533-10.71-10.899-14.017a.46.46 0 0 0-.279-.094h.003z" fill="#1D2138"/>
        <path d="M90.183 27.89a32.562 32.562 0 0 0-4.795-4.284c-.044-.032-.113.016-.154.105-.042.09-.037.19.007.222a32.738 32.738 0 0 1 4.822 4.251c.04.044.1.012.132-.069.032-.08.027-.183-.014-.224h.002zM87.853 45.44a50.213 50.213 0 0 0-5.814-3.711.171.171 0 0 0-.175.009c-.044.032-.037.082.016.112a51.136 51.136 0 0 1 5.837 3.69c.049.037.12.043.157.016.037-.027.028-.078-.02-.115v-.002zM95.642 33.432a44.156 44.156 0 0 0-3.226-5.092c-.032-.043-.08-.02-.106.053-.002.01-.007.018-.01.027-.025.074-.018.17.014.213 1.14 1.521 2.224 3.2 3.25 5.053.03.055.071.046.09-.016l.007-.025a.312.312 0 0 0-.019-.215v.002zM94.477 36.53c-3.012-4.554-6.444-7.937-10.295-10.463-.051-.034-.056-.137-.01-.233.047-.094.127-.145.18-.11 3.829 2.547 7.24 5.96 10.229 10.552.039.061.05.169.02.24-.027.069-.085.076-.124.014z" fill="#1D2138"/>
        <path d="M94.103 37.392c-3.09-4.42-6.603-7.7-10.528-10.156-.053-.032-.058-.132-.01-.224.05-.092.132-.137.183-.105 3.905 2.473 7.394 5.783 10.461 10.242.042.06.051.165.021.232-.03.066-.088.07-.13.011h.003z" fill="#1D2138"/>
        <path d="M93.679 38.296c-3.176-4.281-6.774-7.453-10.78-9.833-.053-.032-.057-.128-.009-.215.049-.087.134-.13.187-.099 3.985 2.398 7.56 5.6 10.715 9.915a.238.238 0 0 1 .02.222c-.03.064-.09.067-.133.01z" fill="#1D2138"/>
        <path d="M93.296 39.045c-3.25-4.162-6.92-7.244-10.994-9.565-.055-.032-.06-.123-.009-.206.05-.082.136-.126.19-.094 4.051 2.337 7.702 5.447 10.931 9.645a.215.215 0 0 1 .02.213c-.031.06-.094.064-.138.007z" fill="#1D2138"/>
        <path d="M92.86 39.83c-3.33-4.035-7.082-7.024-11.228-9.28-.056-.03-.06-.12-.01-.197.051-.078.139-.12.194-.09 4.126 2.273 7.857 5.29 11.165 9.357a.198.198 0 0 1 .02.204c-.032.057-.097.06-.14.004v.002zM91.43 42.012c-3.574-3.673-7.566-6.4-11.923-8.488-.057-.027-.064-.105-.011-.172.053-.066.143-.098.2-.07 4.341 2.102 8.312 4.85 11.866 8.554.049.05.058.13.021.178-.037.049-.104.049-.152 0v-.002z" fill="#1D2138"/>
        <path d="M90.965 42.612c-3.649-3.57-7.713-6.223-12.132-8.268-.06-.027-.064-.1-.011-.165.053-.064.145-.094.205-.064 4.403 2.057 8.444 4.732 12.071 8.33.049.048.058.126.021.172-.037.046-.106.044-.157-.005h.002z" fill="#1D2138"/>
        <path d="M90.44 43.23c-3.728-3.46-7.866-6.04-12.352-8.041-.06-.028-.066-.096-.011-.156.053-.06.147-.087.207-.06 4.468 2.014 8.587 4.611 12.295 8.102.05.048.06.121.023.164-.037.044-.11.04-.159-.006l-.002-.003z" fill="#1D2138"/>
        <path d="M89.975 43.735c-3.798-3.372-8-5.889-12.539-7.856-.06-.028-.067-.094-.012-.15.053-.054.148-.08.21-.052 4.523 1.98 8.707 4.514 12.484 7.911.05.046.06.117.023.158-.039.041-.11.037-.163-.009l-.003-.002z" fill="#1D2138"/>
        <path d="M89.451 44.257c-3.872-3.275-8.143-5.728-12.74-7.666-.062-.025-.066-.089-.013-.142.055-.052.15-.073.212-.048 4.58 1.945 8.833 4.414 12.687 7.717.05.043.062.112.023.15-.04.04-.116.033-.166-.01h-.003z" fill="#1D2138"/>
        <g style="mix-blend-mode:multiply" opacity=".75" fill="#fff">
            <path d="M60.18 34.58a61.345 61.345 0 0 1-6.117-3.119.14.14 0 0 0-.168.032c-.041.048-.032.11.02.142a61.551 61.551 0 0 0 6.122 3.136c.055.025.131 0 .173-.05.039-.053.027-.115-.028-.14h-.002zM57.984 49.98a67.011 67.011 0 0 1-6.728-3.494.164.164 0 0 0-.187.018c-.046.044-.037.108.021.142a67.936 67.936 0 0 0 6.73 3.514c.06.027.147.009.191-.042.044-.05.032-.112-.027-.14v.003zM68.588 36.23a56.873 56.873 0 0 1-5.258-1.695c-.05-.018-.12.007-.155.055-.004.007-.009.014-.014.019-.034.05-.023.105.028.123a57.079 57.079 0 0 0 5.263 1.709c.05.014.122-.018.157-.071l.014-.02c.034-.053.018-.108-.033-.122l-.002.002zM66.714 38.982c-4.86-1.468-9.511-3.573-13.868-6.207-.058-.034-.07-.108-.02-.16a.156.156 0 0 1 .19-.03c4.355 2.618 9.002 4.707 13.857 6.161.064.02.083.09.039.154-.044.064-.134.1-.198.082zM66.15 39.8c-4.877-1.52-9.538-3.678-13.902-6.364a.101.101 0 0 1-.02-.16.155.155 0 0 1 .191-.028c4.361 2.673 9.022 4.812 13.893 6.319.065.02.083.09.04.154-.045.064-.135.1-.202.08zM65.528 40.69c-4.894-1.581-9.57-3.796-13.942-6.54a.103.103 0 0 1-.02-.16.161.161 0 0 1 .193-.025c4.37 2.73 9.04 4.929 13.932 6.493.067.02.083.09.04.154-.044.064-.136.098-.201.077h-.002z"/>
            <path d="M64.981 41.456c-4.91-1.631-9.594-3.896-13.971-6.693-.06-.036-.067-.11-.02-.16a.158.158 0 0 1 .193-.023c4.375 2.78 9.056 5.032 13.962 6.647.067.02.083.091.037.153-.046.064-.136.096-.203.076h.002zM64.373 42.292c-4.927-1.686-9.622-4.009-14.004-6.862-.06-.04-.067-.11-.019-.16a.158.158 0 0 1 .194-.021c4.382 2.837 9.073 5.144 13.997 6.816.067.023.083.092.037.153-.046.062-.139.096-.203.074h-.002zM62.452 44.828c-4.973-1.864-9.698-4.363-14.094-7.393-.06-.042-.067-.113-.018-.16.048-.049.138-.053.196-.014 4.395 3.016 9.119 5.499 14.086 7.345.067.025.083.094.035.155a.193.193 0 0 1-.208.065l.003.002z"/>
            <path d="M61.846 45.594c-4.986-1.92-9.718-4.473-14.119-7.56-.06-.041-.067-.115-.018-.16.048-.046.138-.051.198-.01 4.398 3.072 9.128 5.61 14.112 7.513.067.025.083.096.035.155-.049.06-.14.09-.21.062h.002zM61.175 46.428c-5-1.98-9.739-4.595-14.142-7.744-.06-.041-.066-.115-.016-.16a.163.163 0 0 1 .199-.008c4.4 3.134 9.14 5.733 14.135 7.696.067.028.083.096.034.156-.048.06-.143.087-.21.06z"/>
            <path d="M60.59 47.145c-5.012-2.034-9.758-4.702-14.163-7.904-.06-.043-.067-.114-.016-.16a.164.164 0 0 1 .198-.005c4.403 3.186 9.15 5.838 14.156 7.856.067.028.083.099.035.156a.197.197 0 0 1-.212.057h.002zM59.937 47.926c-5.023-2.094-9.776-4.821-14.18-8.083-.06-.043-.068-.117-.017-.16.05-.046.14-.046.198 0 4.405 3.245 9.156 5.957 14.177 8.034.067.028.083.099.035.159a.197.197 0 0 1-.213.054v-.004z"/>
        </g>
        <path d="M55.852 54.492a.226.226 0 0 1-.078-.014c-7.085-2.567-12.53-6.225-16.647-11.181a.234.234 0 0 1-.05-.181.238.238 0 0 1 .101-.158c7.24-4.657 10.06-7.29 15.1-14.09a.234.234 0 0 1 .304-.063c5.043 2.955 10.366 5.115 15.818 6.42a.225.225 0 0 1 .16.136.225.225 0 0 1-.017.206c-4.234 6.93-9.121 13.275-14.525 18.856a.23.23 0 0 1-.166.071v-.002z" fill="#fff"/>
        <path d="M54.464 29.003c4.96 2.904 10.3 5.108 15.883 6.445-4.232 6.926-9.126 13.27-14.495 18.816-6.93-2.513-12.444-6.173-16.547-11.113 7.165-4.61 10.018-7.208 15.159-14.148zm0-.458a.461.461 0 0 0-.371.188c-5.017 6.772-7.828 9.395-15.037 14.035a.457.457 0 0 0-.106.676c4.144 4.988 9.621 8.669 16.745 11.252a.46.46 0 0 0 .491-.112c5.416-5.593 10.312-11.949 14.556-18.895a.462.462 0 0 0 .032-.415.465.465 0 0 0-.319-.27c-5.428-1.301-10.73-3.452-15.756-6.395a.458.458 0 0 0-.233-.064h-.002z" fill="#1D2138"/>
        <path d="M60.387 34.465a61.324 61.324 0 0 1-6.117-3.12.14.14 0 0 0-.168.033c-.041.048-.032.11.02.142a61.551 61.551 0 0 0 6.122 3.135c.055.026.131 0 .173-.05.039-.053.027-.115-.028-.14h-.002zM58.189 49.865a67.452 67.452 0 0 1-6.728-3.492.164.164 0 0 0-.186.018c-.047.043-.037.108.02.142a67.947 67.947 0 0 0 6.73 3.513c.06.028.148.01.191-.041.044-.05.033-.114-.027-.14zM68.795 36.117a56.873 56.873 0 0 1-5.258-1.695c-.05-.018-.12.007-.155.055a.126.126 0 0 1-.014.018c-.034.05-.023.106.028.124a57.07 57.07 0 0 0 5.263 1.709c.05.013.122-.019.157-.071l.014-.021c.034-.053.018-.108-.033-.121l-.002.002zM66.918 38.87c-4.86-1.467-9.511-3.572-13.868-6.206-.058-.035-.07-.108-.02-.16a.156.156 0 0 1 .19-.03c4.355 2.618 9.002 4.706 13.857 6.16.064.021.083.09.039.154-.044.064-.134.101-.198.083zM66.358 39.687c-4.878-1.52-9.54-3.678-13.903-6.365a.101.101 0 0 1-.02-.16.155.155 0 0 1 .191-.027c4.361 2.672 9.022 4.812 13.893 6.319.065.02.083.09.04.153-.045.064-.135.101-.201.08zM65.735 40.576c-4.894-1.58-9.569-3.795-13.942-6.539a.103.103 0 0 1-.02-.16.161.161 0 0 1 .193-.025c4.37 2.73 9.04 4.928 13.932 6.493.067.02.084.09.04.153-.044.064-.136.099-.201.078h-.002z" fill="#1D2138"/>
        <path d="M65.188 41.344c-4.91-1.63-9.594-3.896-13.971-6.692-.06-.037-.067-.11-.02-.16a.158.158 0 0 1 .193-.023c4.375 2.78 9.057 5.032 13.962 6.646.067.02.083.092.037.154-.046.064-.136.096-.203.075h.002zM64.58 42.18c-4.927-1.685-9.622-4.008-14.004-6.862-.06-.039-.067-.11-.019-.16a.158.158 0 0 1 .194-.02c4.382 2.837 9.073 5.144 13.997 6.816.067.023.083.091.037.153-.046.062-.139.096-.203.073h-.002zM62.658 44.713c-4.973-1.865-9.698-4.364-14.094-7.394-.06-.04-.067-.112-.018-.16.048-.048.138-.053.196-.014 4.395 3.017 9.119 5.5 14.086 7.345.067.026.083.094.035.156a.193.193 0 0 1-.208.064l.003.003z" fill="#1D2138"/>
        <path d="M62.054 45.483c-4.986-1.92-9.718-4.473-14.119-7.56-.06-.042-.067-.115-.018-.161.048-.046.138-.05.198-.01 4.398 3.072 9.128 5.61 14.112 7.513.067.026.083.096.035.156-.049.06-.14.09-.21.062h.002zM61.383 46.314c-5-1.979-9.74-4.594-14.143-7.744-.06-.043-.066-.114-.016-.16a.163.163 0 0 1 .199-.007c4.4 3.133 9.14 5.733 14.135 7.696.067.027.083.096.034.156-.048.06-.143.087-.21.06z" fill="#1D2138"/>
        <path d="M60.795 47.03c-5.012-2.034-9.758-4.702-14.163-7.904-.06-.044-.067-.115-.016-.16a.164.164 0 0 1 .198-.005c4.403 3.186 9.15 5.838 14.156 7.856.067.027.083.098.035.156a.197.197 0 0 1-.212.057h.002zM60.142 47.81c-5.023-2.093-9.776-4.82-14.18-8.082-.06-.044-.068-.117-.017-.16.05-.046.14-.046.198 0 4.405 3.245 9.156 5.957 14.177 8.034.067.028.083.099.035.158a.197.197 0 0 1-.213.055v-.004z" fill="#1D2138"/>
        <path d="M17.563 81.512a.961.961 0 0 1-.734-.319.958.958 0 0 1-.226-.776l2.526-19.301a1.22 1.22 0 0 1 1.183-1.042l27.779-.103c.293 0 .556.114.738.323a.955.955 0 0 1 .224.774L46.527 80.37a1.217 1.217 0 0 1-1.183 1.04l-27.781.103v-.002z" fill="#FFA68A"/>
        <path d="M48.089 60.2c.466 0 .796.374.733.836L46.297 80.34a.992.992 0 0 1-.955.841l-8.646.032-19.13.071h-.005a.718.718 0 0 1-.731-.836l2.525-19.3a.998.998 0 0 1 .955-.844l14.635-.055L48.09 60.2zm0-.458-13.144.048-14.635.055a1.452 1.452 0 0 0-1.41 1.24l-2.525 19.303c-.046.36.053.698.284.957.226.257.549.396.906.396l19.138-.07 8.646-.033A1.451 1.451 0 0 0 46.76 80.4l2.526-19.303a1.202 1.202 0 0 0-.28-.953 1.21 1.21 0 0 0-.91-.4h-.007z" fill="#1D2138"/>
        <path d="M110.216 81.454c-.586 0-1.107-.429-1.186-.974l-2.599-17.862a.874.874 0 0 1 .205-.713.995.995 0 0 1 .755-.325h27.779c.585 0 1.104.428 1.185.974l2.599 17.862a.87.87 0 0 1-.205.712.993.993 0 0 1-.754.326h-27.779z" fill="#0752E5"/>
        <path d="M135.17 61.812c.466 0 .895.348.957.776l2.599 17.863c.062.428-.265.776-.731.776h-27.779c-.466 0-.895-.348-.957-.776l-2.599-17.863c-.063-.428.265-.776.731-.776h27.779zm0-.459h-27.779a1.22 1.22 0 0 0-.93.406 1.103 1.103 0 0 0-.258.895l2.599 17.863c.095.655.717 1.168 1.414 1.168h27.779c.367 0 .706-.146.929-.405a1.1 1.1 0 0 0 .259-.896l-2.599-17.862c-.095-.655-.718-1.169-1.414-1.169z" fill="#1D2138"/>
        <path d="M109.953 81.454a.967.967 0 0 1-.735-.32.952.952 0 0 1-.224-.777l2.599-19.292c.079-.582.6-1.038 1.186-1.038h27.779c.29 0 .553.115.735.321a.956.956 0 0 1 .226.776l-2.599 19.292a1.215 1.215 0 0 1-1.185 1.038h-27.782z" fill="#6A97F0"/>
        <path d="M140.558 60.257a.72.72 0 0 1 .731.838l-2.6 19.292a.994.994 0 0 1-.957.838h-27.779a.719.719 0 0 1-.731-.838l2.599-19.292a.995.995 0 0 1 .958-.838h27.779zm0-.458h-27.779c-.699 0-1.322.543-1.414 1.237l-2.599 19.291c-.049.353.055.704.279.958.223.254.555.398.908.398h27.779c.699 0 1.322-.543 1.414-1.236l2.599-19.292a1.198 1.198 0 0 0-.279-.958 1.205 1.205 0 0 0-.908-.398z" fill="#1D2138"/>
        <path d="m51.643 61.035-2.525 19.303a.992.992 0 0 1-.955.841l-8.646.032c8.111-8.644 1.822-17.258-1.75-20.964L50.91 60.2c.466 0 .796.374.733.836zM141.359 61.035l-2.525 19.303a.993.993 0 0 1-.955.841l-8.646.032c8.111-8.644 1.822-17.258-1.751-20.964l13.144-.048c.466 0 .796.374.733.836z" fill="#fff" style="mix-blend-mode:color-burn"/>
        <path d="M145.621 82H8.361a.917.917 0 0 1-.918-.91c0-.502.413-.912.918-.912h137.26c.505 0 .918.41.918.911a.917.917 0 0 1-.918.912z" fill="#1D2138"/>
    </g>
</svg>
