<svg width="164" height="82" viewBox="0 0 164 82" fill="none" xmlns="http://www.w3.org/2000/svg">
    <g opacity=".6">
        <path d="M161.753 80.613c.002-.321.013-.642.013-.964C161.766 35.7 125.878.07 81.607.07 37.336.07 1.445 35.7 1.445 79.65c0 .32.008.642.014.963h160.294z" fill="#FFF0EB"/>
        <path d="M144.071.184h-43.383a4 4 0 0 0-4 4V53.45a4 4 0 0 0 3.999 4h43.384a4 4 0 0 0 4-4V4.184a4 4 0 0 0-4-4z" fill="#fff"/>
        <path d="M148.067 57.635H96.684a.184.184 0 0 1-.184-.183V.183c0-.101.082-.183.184-.183h51.383c.102 0 .184.082.184.183v57.268a.183.183 0 0 1-.184.183zm-51.198-.367h51.014V.366H96.869v56.902z" fill="#1D2138"/>
        <path d="M101.327 40.024h42.103V6.093h-42.103v33.931z" fill="#FFA68A"/>
        <path d="M111.65 30.1s2.357-3.15 6.402-3.92c6.334-1.208 11.489 2.662 11.946 3.993.457 1.332-19.605 2.737-18.348-.074z" fill="#fff"/>
        <path d="M118.447 31.908c-2.5 0-5.754-.165-6.725-.97-.307-.253-.394-.578-.244-.914a.232.232 0 0 1 .021-.035c.098-.13 2.445-3.215 6.514-3.99 6.395-1.219 11.655 2.66 12.155 4.115.033.094.048.28-.211.458-.924.634-5.194 1.125-8.935 1.282-.553.023-1.493.054-2.575.054zm-6.641-1.715c-.051.119-.129.388.505.674 1.641.74 6.137.776 9.798.565 4.736-.273 7.493-.877 7.705-1.217-.462-1.245-5.548-5.035-11.731-3.856-3.78.72-6.09 3.594-6.277 3.834z" fill="#1D2138"/>
        <path d="M122.148 27.125s.441-6.388 2.689-10.038c0 0-1.937 4.805-1.819 10.107 0 0-.517.444-.87-.07z" fill="#fff"/>
        <path d="M122.566 27.556a.65.65 0 0 1-.085-.006c-.134-.017-.327-.087-.488-.322a.184.184 0 0 1-.032-.116c.019-.263.47-6.474 2.716-10.121a.184.184 0 0 1 .327.164c-.019.048-1.921 4.833-1.805 10.035a.183.183 0 0 1-.064.143c-.029.025-.269.223-.569.223zm-.232-.486c.059.069.123.107.194.116a.486.486 0 0 0 .301-.085c-.048-2.72.443-5.32.928-7.197-1.066 3.13-1.381 6.637-1.423 7.166z" fill="#1D2138"/>
        <path d="m124.285 17.513-4.452 2.338s-.176-2.852 1.587-4.05c1.763-1.197 3.085.571 3.085.571l-1.763-2.68s.97-.343 1.675-.115c1.763.57 1.454 2.852 1.454 2.852s.749-1.084 2.116-1.026c1.366.056 1.454 1.14 1.454 1.14l-2.556.513s1.322.457 1.895 2.339-.485 3.878-.485 3.878-2.155-2.159-2.535-5.234l-.726 5.52s-2.645-2.51-.749-6.046z" fill="#fff"/>
        <path d="M125.031 23.74a.186.186 0 0 1-.127-.05c-.026-.024-2.473-2.404-1.03-5.756l-3.958 2.079a.184.184 0 0 1-.269-.151c-.008-.12-.162-2.97 1.666-4.212.947-.644 1.78-.492 2.377-.179l-1.105-1.68a.183.183 0 0 1 .093-.273c.042-.015 1.037-.36 1.793-.116 1.344.435 1.577 1.785 1.598 2.535a2.685 2.685 0 0 1 1.923-.718c1.511.063 1.629 1.296 1.63 1.309a.184.184 0 0 1-.147.194l-2.057.413c.465.313 1.157.962 1.536 2.206.588 1.932-.454 3.933-.499 4.017a.182.182 0 0 1-.135.096.186.186 0 0 1-.158-.052c-.078-.079-1.706-1.733-2.369-4.223l-.579 4.402a.183.183 0 0 1-.183.16zm-.749-6.411a.183.183 0 0 1 .162.27c-1.447 2.7-.137 4.794.457 5.535l.674-5.12a.184.184 0 0 1 .183-.159c.093 0 .171.07.182.16.304 2.459 1.783 4.337 2.302 4.93.249-.575.79-2.083.36-3.498-.54-1.772-1.767-2.214-1.78-2.218a.183.183 0 0 1 .024-.353l2.375-.477c-.083-.266-.357-.777-1.244-.814-1.248-.05-1.95.938-1.957.948a.183.183 0 0 1-.217.066.183.183 0 0 1-.117-.195c.012-.087.266-2.137-1.328-2.653-.442-.143-1.016-.035-1.329.046l1.627 2.474a.183.183 0 0 1-.048.25.184.184 0 0 1-.253-.04c-.05-.066-1.241-1.61-2.834-.528-1.333.905-1.497 2.857-1.51 3.595l4.185-2.198a.188.188 0 0 1 .086-.021z" fill="#1D2138"/>
        <path d="M118.023 20.731c.25.095 1.083.621 1.829 1.923.801 1.628 1.105 4.044 1.105 4.044s-.381.345-.8.05c0 0-.228-4.143-2.134-6.017z" fill="#fff"/>
        <path d="M120.511 27.05a.791.791 0 0 1-.463-.154.183.183 0 0 1-.078-.14c-.002-.04-.247-4.093-2.079-5.894a.183.183 0 0 1 .194-.302c.342.13 1.185.715 1.924 2.003.81 1.646 1.115 4.012 1.128 4.112a.185.185 0 0 1-.059.158.886.886 0 0 1-.567.216zm-.18-.41a.44.44 0 0 0 .426-.026c-.07-.481-.39-2.49-1.073-3.88a6.134 6.134 0 0 0-.636-.913c1.017 1.853 1.245 4.292 1.283 4.818z" fill="#1D2138"/>
        <path d="m118.556 21.348-.152 2.885s-1.029-.099-1.391-1.036c-.362-.937.877-2.293.877-2.293l-2.02 1.208s-.248-.813.362-1.454 1.562-.345 1.562-.345-.685-.962-.209-1.923l.61 1.553s.002-.486.46-.88c.457-.395 1.559-.076 1.559-.076l-1.524 1.326s1.391-.567 2.267.887c0 0-1.2 1.208-2.401.148z" fill="#fff"/>
        <path d="m118.401 24.416-.017-.001c-.047-.005-1.147-.122-1.545-1.152-.217-.562.057-1.232.361-1.734l-1.238.74a.185.185 0 0 1-.271-.104c-.011-.037-.271-.924.405-1.634.423-.444.979-.494 1.35-.464-.18-.395-.37-1.071-.029-1.759a.185.185 0 0 1 .173-.102.182.182 0 0 1 .163.117l.415 1.055c.077-.148.192-.307.363-.455.518-.446 1.609-.149 1.732-.113a.184.184 0 0 1 .069.314l-1.034.9c.527-.01 1.27.178 1.814 1.081a.183.183 0 0 1-.027.224c-.416.419-1.399.974-2.366.372l-.134 2.541a.185.185 0 0 1-.184.174zm-.514-3.695a.183.183 0 0 1 .136.307c-.323.354-1.104 1.422-.841 2.103.228.59.76.805 1.047.88l.141-2.673a.184.184 0 0 1 .306-.128c.874.772 1.74.203 2.039-.042a1.641 1.641 0 0 0-1.959-.686.185.185 0 0 1-.226-.074.182.182 0 0 1 .036-.234l1.249-1.087c-.352-.057-.82-.078-1.043.113-.383.331-.396.74-.396.743a.184.184 0 0 1-.356.066l-.413-1.053c-.069.669.33 1.243.335 1.25a.184.184 0 0 1-.205.281c-.008-.002-.853-.251-1.374.296a1.337 1.337 0 0 0-.358 1.033l1.787-1.07a.187.187 0 0 1 .095-.025z" fill="#1D2138"/>
        <path d="M110.344 29.508s2.858 1.184 7.83.74c4.973-.444 11.546-2.22 16.119-.518v2.515l-23.574-.427-.375-2.31z" fill="#FFF0EB"/>
        <path d="M115.956 30.532c-3.574 0-5.587-.814-5.686-.855a.183.183 0 1 1 .141-.338c.028.011 2.882 1.16 7.743.726 1.27-.113 2.63-.312 4.07-.522 4.071-.593 8.685-1.266 12.13.015a.184.184 0 1 1-.129.344c-3.356-1.249-7.921-.583-11.948.004-1.445.211-2.81.41-4.09.524-.799.072-1.544.102-2.231.102z" fill="#1D2138"/>
        <path d="M115.977 31.433c-.966 0-1.903-.06-2.802-.179a.184.184 0 0 1-.158-.206c.014-.1.107-.17.207-.157 1.545.205 3.206.23 4.934.077 1.27-.114 2.63-.312 4.07-.522 3.34-.487 6.794-.991 9.823-.555a.183.183 0 0 1 .156.208.183.183 0 0 1-.208.155c-2.977-.428-6.404.072-9.718.555-1.445.21-2.81.41-4.09.524-.752.067-1.491.1-2.214.1zM115.982 32.392h-.048a.184.184 0 0 1-.184-.184c0-.101.083-.183.184-.183a26.102 26.102 0 0 0 2.224-.099c1.27-.113 2.63-.312 4.07-.522 2.226-.324 4.529-.66 6.734-.712.1-.003.186.077.188.178a.184.184 0 0 1-.179.188c-2.183.052-4.474.386-6.69.71-1.445.21-2.81.409-4.09.523-.745.067-1.488.1-2.209.1z" fill="#1D2138"/>
        <path d="m141.918 43.717-1.597-1.82.222-2.407-2.363-.535-1.237-2.087-2.226.953-2.226-.953-1.237 2.081-2.364.528.223 2.414-1.597 1.826 1.597 1.82-.223 2.413 2.364.535 1.237 2.081 2.226-.959 2.226.953 1.237-2.081 2.363-.535-.222-2.407 1.597-1.82zm-8.451 3.079-2.488-2.485.969-.966 1.519 1.52 3.829-3.829.969.966-4.798 4.794z" fill="#0752E5"/>
        <path d="M108.969 13.496H57.586v57.268h51.383V13.496z" fill="#fff"/>
        <path d="M108.966 70.946H57.582a.184.184 0 0 1-.184-.183V13.496c0-.102.082-.184.184-.184h51.384c.102 0 .183.083.183.184v57.267a.182.182 0 0 1-.183.183zm-51.199-.366h51.015V13.679H57.767V70.58z" fill="#1D2138"/>
        <path d="M62.218 53.337h42.102V19.405H62.218v33.932z" fill="#FFA68A"/>
        <path d="M70.664 33.891 83.24 38.76l12.577-4.869-12.577-4.868-12.576 4.868z" fill="#fff"/>
        <path d="M83.237 38.943a.183.183 0 0 1-.067-.013l-12.576-4.868a.183.183 0 0 1 0-.342l12.576-4.868a.183.183 0 0 1 .133 0L95.88 33.72a.183.183 0 0 1 0 .342L83.304 38.93a.182.182 0 0 1-.067.013zM71.169 33.89l12.068 4.672 12.068-4.672-12.068-4.672-12.068 4.672z" fill="#1D2138"/>
        <path d="M76.617 39.755h13.246v-4.408c0-.819-.5-1.526-1.201-1.702a21.922 21.922 0 0 0-10.844 0c-.7.176-1.2.883-1.2 1.702v4.408z" fill="#fff"/>
        <path d="M89.86 39.938H76.613a.184.184 0 0 1-.184-.183v-4.408c0-.909.55-1.682 1.34-1.88a22.202 22.202 0 0 1 10.933 0c.79.198 1.34.971 1.34 1.88v4.408a.184.184 0 0 1-.184.183zm-13.062-.366h12.877v-4.225c0-.729-.446-1.37-1.062-1.525a21.84 21.84 0 0 0-10.753 0c-.616.155-1.062.796-1.062 1.525v4.225z" fill="#1D2138"/>
        <path d="M83.24 41.132c3.658 0 6.623-.616 6.623-1.377 0-.76-2.965-1.377-6.623-1.377-3.658 0-6.623.617-6.623 1.377s2.965 1.377 6.623 1.377z" fill="#fff"/>
        <path d="M83.237 41.315c-3.383 0-6.807-.536-6.807-1.56 0-1.025 3.424-1.56 6.806-1.56 3.383 0 6.807.535 6.807 1.56 0 1.024-3.424 1.56-6.806 1.56zm0-2.754c-3.99 0-6.44.695-6.44 1.194 0 .498 2.45 1.194 6.44 1.194 3.989 0 6.438-.696 6.438-1.194 0-.499-2.45-1.194-6.438-1.194zM93.278 41a.184.184 0 0 1-.184-.184v-5.087a.184.184 0 0 1 .368 0v5.087a.184.184 0 0 1-.184.183z" fill="#1D2138"/>
        <path d="M92.375 45.702h1.818l-.91-4.247-.908 4.247z" fill="#fff"/>
        <path d="M94.19 45.885H92.37a.184.184 0 0 1-.18-.222l.91-4.246a.184.184 0 0 1 .36 0l.908 4.246a.183.183 0 0 1-.18.222zm-1.591-.367h1.363l-.682-3.184-.681 3.184z" fill="#1D2138"/>
        <g clip-path="url(#9bcxzzc98a)">
            <path d="m104.34 57.067-1.597-1.82.222-2.407-2.363-.535-1.237-2.087-2.226.952-2.226-.952-1.237 2.08-2.364.529.223 2.413-1.597 1.827 1.597 1.82-.223 2.413 2.364.535 1.237 2.08 2.226-.958 2.226.952 1.237-2.08 2.363-.535-.222-2.407 1.597-1.82zm-8.452 3.078-2.487-2.485.969-.965 1.518 1.52 3.83-3.83.969.966-4.799 4.794z" fill="#0752E5"/>
        </g>
        <path d="M67.126.184H15.742V57.45h51.383V.184z" fill="#fff"/>
        <path d="M67.122 57.635H15.739a.183.183 0 0 1-.184-.183V.183c0-.101.082-.183.184-.183h51.383c.102 0 .184.082.184.183v57.268a.183.183 0 0 1-.184.183zm-51.2-.367h51.015V.366H15.922v56.902z" fill="#1D2138"/>
        <path d="M20.382 40.024h42.102V6.093H20.382v33.931z" fill="#FFA68A"/>
        <path d="M41.453 31.615c5.1 0 9.233-4.091 9.233-9.138 0-5.046-4.134-9.137-9.233-9.137-5.1 0-9.234 4.09-9.234 9.137 0 5.047 4.134 9.138 9.234 9.138z" fill="#fff"/>
        <path d="M41.443 31.799a9.46 9.46 0 0 1-3.418-.64 9.312 9.312 0 0 1-5.207-4.964 9.174 9.174 0 0 1-.135-7.112c1.89-4.786 7.363-7.157 12.2-5.287a9.312 9.312 0 0 1 5.207 4.964c1 2.275 1.048 4.8.135 7.111-1.452 3.676-5.016 5.928-8.782 5.928zm.022-18.276c-3.62 0-7.045 2.163-8.44 5.694a8.81 8.81 0 0 0 .13 6.83 8.946 8.946 0 0 0 5.003 4.77c4.649 1.798 9.908-.481 11.725-5.08a8.81 8.81 0 0 0-.13-6.83 8.947 8.947 0 0 0-5.003-4.77 9.092 9.092 0 0 0-3.285-.614z" fill="#1D2138"/>
        <path d="M41.449 21.11a2.31 2.31 0 0 0 2.316-2.302 2.31 2.31 0 0 0-2.316-2.303 2.31 2.31 0 0 0-2.316 2.303 2.31 2.31 0 0 0 2.316 2.303z" fill="#fff"/>
        <path d="M41.445 21.294a2.496 2.496 0 0 1-2.5-2.486 2.496 2.496 0 0 1 2.5-2.487c1.379 0 2.5 1.116 2.5 2.487a2.496 2.496 0 0 1-2.5 2.486zm0-4.606c-1.175 0-2.132.95-2.132 2.12 0 1.169.957 2.12 2.132 2.12 1.176 0 2.132-.951 2.132-2.12 0-1.17-.956-2.12-2.132-2.12z" fill="#1D2138"/>
        <path d="M43.189 22.053h-3.474a3.097 3.097 0 0 0-3.106 3.088v2.146h9.685V25.14a3.097 3.097 0 0 0-3.105-3.088z" fill="#fff"/>
        <path d="M46.29 27.47h-9.684a.184.184 0 0 1-.184-.183V25.14c0-1.804 1.476-3.272 3.29-3.272h3.473c1.814 0 3.29 1.468 3.29 3.272v2.146a.184.184 0 0 1-.184.183zm-9.5-.366h9.317V25.14a2.917 2.917 0 0 0-2.922-2.905h-3.474a2.917 2.917 0 0 0-2.921 2.905v1.963z" fill="#1D2138"/>
        <path d="m61.754 42.616-1.597-1.82.222-2.407-2.363-.535-1.237-2.087-2.226.952-2.226-.952-1.237 2.08-2.364.529.223 2.413-1.597 1.827 1.597 1.82-.223 2.413 2.364.535 1.237 2.08 2.226-.958 2.226.952 1.237-2.08 2.363-.536-.222-2.407 1.597-1.82zm-8.451 3.078-2.488-2.485.969-.965 1.519 1.52 3.83-3.83.968.966-4.798 4.794z" fill="#0752E5"/>
        <path d="M162.918 81.847H1.082A1.081 1.081 0 0 1 0 80.773c0-.591.487-1.075 1.082-1.075h161.836c.595 0 1.082.484 1.082 1.075 0 .59-.487 1.074-1.082 1.074z" fill="#1D2138"/>
    </g>
    <defs>
        <clipPath id="9bcxzzc98a">
            <path fill="#fff" transform="translate(89.281 49.24)" d="M0 0h15.712v15.655H0z"/>
        </clipPath>
    </defs>
</svg>
