<svg width="48" height="48" viewBox="0 0 48 48" fill="none" xmlns="http://www.w3.org/2000/svg">
<g clip-path="url(#clip0_559_26722)">
<path d="M24 48C37.2548 48 48 37.2548 48 24C48 10.7452 37.2548 0 24 0C10.7452 0 0 10.7452 0 24C0 37.2548 10.7452 48 24 48Z" fill="#4A79FD"/>
<path d="M35.6033 8.39062H12.397C11.5277 8.39062 10.8096 9.10873 10.8096 9.97803V38.0221C10.8096 38.8914 11.5277 39.6095 12.397 39.6095H35.5655C36.4348 39.6095 37.1529 38.8914 37.1529 38.0221V9.97803C37.1907 9.10873 36.4726 8.39062 35.6033 8.39062Z" fill="white"/>
<path d="M35.6033 8.39062H12.397C11.5277 8.39062 10.8096 9.10873 10.8096 9.97803V13.5686H37.1529V9.97803C37.1907 9.10873 36.4726 8.39062 35.6033 8.39062Z" fill="#1D2138"/>
<path d="M34.6206 11.9824C35.1842 11.9824 35.641 11.5255 35.641 10.9619C35.641 10.3983 35.1842 9.94141 34.6206 9.94141C34.057 9.94141 33.6001 10.3983 33.6001 10.9619C33.6001 11.5255 34.057 11.9824 34.6206 11.9824Z" fill="white"/>
<path d="M31.2187 11.9824C31.7823 11.9824 32.2392 11.5255 32.2392 10.9619C32.2392 10.3983 31.7823 9.94141 31.2187 9.94141C30.6551 9.94141 30.1982 10.3983 30.1982 10.9619C30.1982 11.5255 30.6551 11.9824 31.2187 11.9824Z" fill="white"/>
<path d="M27.8173 11.9824C28.3809 11.9824 28.8378 11.5255 28.8378 10.9619C28.8378 10.3983 28.3809 9.94141 27.8173 9.94141C27.2538 9.94141 26.7969 10.3983 26.7969 10.9619C26.7969 11.5255 27.2538 11.9824 27.8173 11.9824Z" fill="white"/>
<path d="M34.0916 15.875H13.8711V22.3758H34.0916V15.875Z" fill="#67FAFD"/>
<path d="M34.0916 24.1523H13.8711V25.2484H34.0916V24.1523Z" fill="#E6E6E9"/>
<path d="M34.0916 26.4219H13.8711V27.5179H34.0916V26.4219Z" fill="#E6E6E9"/>
<path d="M34.0916 28.7266H13.8711V29.8226H34.0916V28.7266Z" fill="#E6E6E9"/>
<path d="M34.0916 30.9922H13.8711V32.0883H34.0916V30.9922Z" fill="#E6E6E9"/>
<path d="M34.0916 33.2617H13.8711V34.3578H34.0916V33.2617Z" fill="#E6E6E9"/>
<path d="M23.2443 35.5664H13.8711V36.6625H23.2443V35.5664Z" fill="#E6E6E9"/>
</g>
<defs>
<clipPath id="clip0_559_26722">
<rect width="48" height="48" fill="white"/>
</clipPath>
</defs>
</svg>
