<svg width="20" height="20" viewBox="0 0 20 20" fill="none" xmlns="http://www.w3.org/2000/svg">
    <circle cx="10" cy="10" r="10" fill="#1D2138"/>
    <path d="M6.126 12.76A4.286 4.286 0 0 0 9.163 14a4.286 4.286 0 0 0 3.038-1.24H6.125zM12.201 8.254H5.387A3.84 3.84 0 0 0 5 9.494h7.201v-1.24zM12.201 7.24A4.286 4.286 0 0 0 9.164 6a4.286 4.286 0 0 0-3.038 1.24h6.075zM12.201 10.508H5c.058.44.192.857.387 1.24H12.2v-1.24zM12.94 8.254c.196.383.33.8.388 1.24H15v-1.24h-2.06z" fill="#fff"/>
    <path d="M15 12.76H12.2V14H15v-1.24zM12.94 11.747H15v-1.24h-1.672c-.059.44-.192.857-.387 1.24zM15 6H12.2v1.24H15V6z" fill="#fff"/>
    <path d="M13.328 9.494a3.84 3.84 0 0 0-.387-1.24 4.005 4.005 0 0 0-.74-1.014v5.521c.298-.298.549-.64.74-1.014a3.838 3.838 0 0 0 .387-2.254z" fill="#1D58FC"/>
</svg>
