<svg width="24" height="20" viewBox="0 0 24 20" fill="none" xmlns="http://www.w3.org/2000/svg">
    <path d="M2.683 16.9A9.972 9.972 0 0 0 9.919 20a9.972 9.972 0 0 0 7.236-3.1H2.682zM17.156 5.633H.922c-.465.957-.783 2-.922 3.099h17.156v-3.1zM17.156 3.099A9.972 9.972 0 0 0 9.92 0a9.972 9.972 0 0 0-7.236 3.099h14.472zM17.156 11.268H0a9.944 9.944 0 0 0 .922 3.099h16.234v-3.099zM18.919 5.633c.465.957.782 2 .921 3.099h3.983v-3.1H18.92zM23.823 16.9h-6.667V20h6.667v-3.1zM18.919 14.367h4.904v-3.099H19.84a9.948 9.948 0 0 1-.921 3.099zM23.823 0h-6.667v3.099h6.667V0z" fill="#fff"/>
    <path d="M19.84 8.733a9.943 9.943 0 0 0-.922-3.099A10.011 10.011 0 0 0 17.156 3.1v13.803c.71-.745 1.307-1.6 1.762-2.535A9.943 9.943 0 0 0 19.92 10c0-.43-.027-.852-.08-1.268z" fill="#1E59FD"/>
</svg>
