<svg width="20" height="20" viewBox="0 0 20 20" fill="none" xmlns="http://www.w3.org/2000/svg">
    <circle cx="10" cy="10" r="10" fill="#1FE5CD"/>
    <mask id="mjkrg0d2ka" style="mask-type:alpha" maskUnits="userSpaceOnUse" x="3" y="3" width="14" height="14">
        <path fill="#D9D9D9" d="M3 3h14v14H3z"/>
    </mask>
    <g mask="url(#mjkrg0d2ka)">
        <path d="M6.79 14.665c-.885 0-1.641-.306-2.268-.918-.627-.613-.941-1.361-.941-2.246 0-.759.229-1.434.685-2.027A3.032 3.032 0 0 1 6.06 8.336 3.96 3.96 0 0 1 7.52 6.163a3.991 3.991 0 0 1 2.479-.831c1.137 0 2.102.396 2.895 1.189.792.792 1.188 1.757 1.188 2.894.67.078 1.228.367 1.67.868.442.5.663 1.087.663 1.757 0 .73-.255 1.35-.765 1.86s-1.13.765-1.86.765h-7zm0-1.166h7c.408 0 .753-.141 1.035-.423.282-.282.423-.627.423-1.036 0-.408-.141-.753-.423-1.035a1.408 1.408 0 0 0-1.036-.423h-.875V9.415c0-.807-.284-1.494-.853-2.063a2.811 2.811 0 0 0-2.063-.853c-.807 0-1.495.284-2.064.853a2.811 2.811 0 0 0-.853 2.063H6.79c-.563 0-1.045.2-1.443.598-.399.399-.598.88-.598 1.444s.199 1.045.598 1.444c.398.398.88.598 1.443.598z" fill="#fff"/>
    </g>
</svg>
