<svg width="20" height="20" viewBox="0 0 20 20" fill="none" xmlns="http://www.w3.org/2000/svg">
<g clip-path="url(#clip0_0_32)">
<path d="M10.4466 2.37994C10.2027 2.12596 9.79641 2.12596 9.55242 2.37994L2.66309 9.55146V18.5313C2.66309 19.0335 3.0702 19.4406 3.57238 19.4406H16.4266C16.9288 19.4406 17.3359 19.0335 17.3359 18.5313C17.3359 18.346 17.3359 9.98314 17.3359 9.55143L10.4466 2.37994Z" fill="#FFC4B1"/>
<path d="M7.54785 19.4409V15.7219C7.54785 14.3675 8.64582 13.2695 10.0002 13.2695C11.3546 13.2695 12.4525 14.3675 12.4525 15.7219V19.4409C12.1952 19.4409 7.82895 19.4409 7.54785 19.4409Z" fill="#FF8963"/>
<path d="M9.55291 3.52116L1.52986 11.8728C1.36947 12.0398 1.10322 12.0425 0.939547 11.8788L0.121071 11.0603C-0.0380698 10.9012 -0.040648 10.644 0.11525 10.4817L9.40384 0.812568C9.72916 0.473936 10.2708 0.473936 10.5961 0.812568L19.8847 10.4817C20.0406 10.644 20.0381 10.9012 19.8789 11.0603L19.0605 11.8788C18.8968 12.0425 18.6306 12.0398 18.4702 11.8728L10.4471 3.52116C10.2031 3.26718 9.79689 3.26718 9.55291 3.52116Z" fill="#FF8963"/>
</g>
<defs>
<clipPath id="clip0_0_32">
<rect width="20" height="20" fill="white"/>
</clipPath>
</defs>
</svg>
