<svg width="24" height="24" viewBox="0 0 24 24" fill="none" xmlns="http://www.w3.org/2000/svg">
    <path fill-rule="evenodd" clip-rule="evenodd" d="M17.154 18.889c0-.28.225-.509.5-.509h4.5V.978a.506.506 0 0 0-.5-.51h-17c-.275 0-.5.23-.5.51V22.96c0 .28.225.509.5.509h12.5v-4.58z" fill="#fff"/>
    <path fill-rule="evenodd" clip-rule="evenodd" d="M17.571 18.43a.505.505 0 0 0-.497.51v4.592l4.97-5.102H17.57zM18.443 6.43a.928.928 0 0 0-.913-.938H2.87a.928.928 0 0 0-.914.938v6.562c0 .516.41.938.913.938H17.53a.928.928 0 0 0 .913-.938V6.43z" fill="#FFC4B1"/>
    <path d="M22.404 18.715a.478.478 0 0 0 .096-.286V.979A.968.968 0 0 0 21.547 0H4.65a.968.968 0 0 0-.953.979v4.044H2.87c-.756 0-1.37.63-1.37 1.406v6.563c0 .775.614 1.406 1.37 1.406h.828v8.623c0 .54.427.979.953.979h12.423c.12 0 .238-.05.323-.137l4.97-5.103a.444.444 0 0 0 .037-.045zM2.413 12.992V6.429c0-.258.205-.469.457-.469h14.66c.252 0 .457.21.457.47v6.562a.463.463 0 0 1-.456.468H2.87a.463.463 0 0 1-.457-.469zM4.611 23.02v-6.748h2.054c.252 0 .456-.21.456-.469a.463.463 0 0 0-.456-.469H4.61v-.937h12.92c.755 0 1.37-.631 1.37-1.406V6.429c0-.775-.615-1.406-1.37-1.406H4.61V.979c0-.022.019-.042.04-.042h16.896c.02 0 .04.02.04.042V17.96h-4.016a.968.968 0 0 0-.954.979v4.123H4.652c-.021 0-.04-.02-.04-.041zm16.33-4.123-3.41 3.502v-3.461c0-.022.019-.041.04-.041h3.37z" fill="#1D2138"/>
    <path d="M8.718 15.336a.463.463 0 0 0-.456.469c0 .259.204.468.456.468.253 0 .457-.21.457-.468a.463.463 0 0 0-.457-.47z" fill="#1D2138"/>
</svg>
