<svg width="20" height="20" viewBox="0 0 20 20" fill="none" xmlns="http://www.w3.org/2000/svg">
    <circle cx="10" cy="10" r="10" fill="#1D2138"/>
    <path d="m14.255 15.4-1.446-1.419H7c-.836 0-1.545-.29-2.127-.872C4.29 12.527 4 11.818 4 10.98c0-.7.216-1.322.648-1.868a2.884 2.884 0 0 1 1.67-1.05l.082-.211c.027-.068.055-.143.082-.225L4.218 5.363l.764-.763 10.036 10.036-.764.764zM7 12.89h4.718L7.328 8.5a2.88 2.88 0 0 0-.055.573H7a1.84 1.84 0 0 0-1.35.558 1.84 1.84 0 0 0-.56 1.35c0 .528.187.978.56 1.35.373.373.823.56 1.35.56zm8.236.41-.79-.764c.154-.127.27-.275.347-.443a1.34 1.34 0 0 0 .116-.566c0-.382-.132-.705-.395-.968a1.317 1.317 0 0 0-.968-.396h-.819v-1.09c0-.755-.266-1.398-.797-1.93A2.628 2.628 0 0 0 10 6.345c-.245 0-.482.03-.71.089a2.43 2.43 0 0 0-.654.28l-.79-.792A3.752 3.752 0 0 1 10 5.254c1.063 0 1.965.37 2.706 1.112.74.74 1.111 1.643 1.111 2.706a2.38 2.38 0 0 1 1.562.812c.413.468.62 1.016.62 1.643a2.392 2.392 0 0 1-.764 1.773z" fill="#fff"/>
</svg>
