<svg width="242" height="242" viewBox="0 0 242 242" fill="none" xmlns="http://www.w3.org/2000/svg">
    <path d="M124.274 129.719c21.541-21.541 21.541-56.467 0-78.009-21.542-21.541-56.468-21.541-78.01 0-21.541 21.542-21.541 56.468 0 78.009 21.542 21.542 56.468 21.542 78.01 0z" fill="#E6E6E9" stroke="#686B7A" stroke-miterlimit="10" stroke-linecap="round" stroke-linejoin="round"/>
    <path d="M204.283 145.227s2.889 2.546 2.379 3.568c-.511 1.021-11.046 11.725-11.046 11.725l-1.868-2.721 5.946-10.704 4.589-1.868z" fill="#fff" stroke="#686B7A" stroke-miterlimit="10"/>
    <path d="M190.417 132.023s12.845 11.337 12.845 12.015c0 .679-4.757 5.1-4.757 5.1l-9.347-2.721.511-10.536" fill="#fff"/>
    <path d="M190.417 132.023s12.845 11.337 12.845 12.015c0 .679-4.757 5.1-4.757 5.1l-9.347-2.721.511-10.536" stroke="#686B7A" stroke-miterlimit="10"/>
    <path d="m201.051 140.815-3.91 8.667.511 1.19 7.646-6.458c.006-.005-1.694-3.573-4.247-3.399z" fill="#fff" stroke="#686B7A" stroke-miterlimit="10"/>
    <path d="M156.437 148.632a5.166 5.166 0 0 1-3.544-.865l-23.021-15.606a5.222 5.222 0 0 1 5.86-8.644l23.02 15.606a5.224 5.224 0 0 1 1.393 7.252 5.189 5.189 0 0 1-3.708 2.257z" fill="#fff" stroke="#686B7A" stroke-miterlimit="10" stroke-linecap="round" stroke-linejoin="round"/>
    <path d="M145.101 150.059s1.404 2.541 1.973 3.26c.562.719 3.452 1.352 3.452 1.352s3.04 7.965 3.631 9.381c.592 1.421 1.845 3.887 2.431 4.067.586.186 4.868 2.117 5.889.754 1.021-1.357.858-6.138.858-6.138l-8.702-8.563-.65-2.82-8.882-1.293z" fill="#fff" stroke="#686B7A" stroke-miterlimit="10"/>
    <path d="M205.095 186.709a10.99 10.99 0 0 1-7.484-1.822l-49.859-33.8c-5.041-3.417-6.352-10.269-2.941-15.31 3.417-5.042 10.269-6.353 15.31-2.942l49.859 33.8c5.042 3.417 6.353 10.269 2.941 15.311a11.029 11.029 0 0 1-7.826 4.763z" fill="#CDCED3" stroke="#686B7A" stroke-miterlimit="10"/>
    <path d="M146.592 153.338s-1.299-3.365-1.468-3.696c-.168-.336-1.224-1.728-1.056-2.169.169-.447.668-.668 1.451-.111.777.557 2.228 3.731 2.228 3.731s2.28-1.166 3.283-.163c1.004 1.004 1.224 3.679 1.224 3.679" fill="#fff"/>
    <path d="M146.592 153.338s-1.299-3.365-1.468-3.696c-.168-.336-1.224-1.728-1.056-2.169.169-.447.668-.668 1.451-.111.777.557 2.228 3.731 2.228 3.731s2.28-1.166 3.283-.163c1.004 1.004 1.224 3.679 1.224 3.679" stroke="#686B7A" stroke-miterlimit="10"/>
    <path d="M80.118 32.321c-32.93 3.928-56.444 33.806-52.516 66.741 3.927 32.93 33.806 56.444 66.741 52.516 32.936-3.927 56.444-33.806 52.516-66.741-3.928-32.93-33.812-56.444-66.741-52.516zm13.407 112.394c-29.141 3.475-55.579-17.329-59.06-46.47-3.475-29.142 17.33-55.58 46.47-59.06 29.142-3.476 55.58 17.329 59.061 46.47 3.475 29.141-17.335 55.585-46.47 59.06z" fill="#fff" stroke="#686B7A" stroke-miterlimit="10" stroke-linecap="round" stroke-linejoin="round"/>
    <path d="M77.762 31.323c-32.93 3.928-56.443 33.806-52.516 66.741 3.928 32.93 33.806 56.444 66.742 52.516 32.929-3.927 56.443-33.806 52.516-66.741-3.928-32.93-33.806-56.444-66.742-52.516zM91.17 143.717c-29.142 3.475-55.58-17.329-59.06-46.47-3.476-29.142 17.329-55.58 46.47-59.06 29.142-3.476 55.579 17.329 59.06 46.47 3.475 29.141-17.329 55.585-46.47 59.06z" fill="#fff" stroke="#686B7A" stroke-miterlimit="10" stroke-linecap="round" stroke-linejoin="round"/>
    <path d="M165.951 115.362s-1.479 4.148-1.38 4.937c.098.789.493 1.085 0 1.578-.494.493-2.072 1.677-1.874 2.367.197.691 1.183 1.48 1.183 1.48s1.085 4.345 2.17 4.838c1.085.493 2.767.099 2.767.099l1.184 3.162 8.296-2.071-.493-5.036s2.466-4.74 1.874-7.6c-.592-2.866-5.726-5.628-9.085-5.628-3.36 0-4.346 1.085-4.642 1.874z" fill="#fff" stroke="#686B7A" stroke-miterlimit="10"/>
    <path d="M166.003 126.924s1.294-.168 1.689-.957" stroke="#686B7A" stroke-miterlimit="10"/>
    <path d="M166.119 121.859c0 .342-.116.621-.255.621s-.255-.279-.255-.621c0-.342.116-.621.255-.621s.255.279.255.621z" fill="#686B7A"/>
    <path d="M165.499 120.457s.731-.899 1.183.227" stroke="#686B7A" stroke-miterlimit="10"/>
    <path d="M167.929 116.948s-3.26.197-3.457-2.866c-.198-3.064 4.246-4.74 5.923-4.74 1.677 0 .493 1.676.493 1.676s4.148-1.183 5.233-.098.198 1.972.198 1.972 5.43 2.269 5.43 6.22c0 3.951-2.866 7.803-3.359 8.592-.493.789-1.677 1.479-3.853 1.578-2.169.098-3.457-.986-3.95-2.466l-.494-1.479s1.677-1.776.888-3.261c-.789-1.479-1.282-.592-1.479 0-.198.592.197 1.184-.198 1.184-.394 0-.098-.493-1.183-1.578s-1.973-1.578-1.578-2.669c.394-1.079 1.386-2.065 1.386-2.065z" fill="#686B7A" stroke="#686B7A" stroke-miterlimit="10"/>
    <path d="m167.634 133.349-1.178 2.605 14.991-3.405-1.734-2.17-12.079 2.97zM173.656 222.346s-4.467 1.067-7.066 1.067-3.731-.133-3.731.731c0 .865 4.131 2.466 6.533 3.4 2.402.934 7.066 2.268 7.467 2.135.4-.134 1.201-5.001 1.201-5.001l-4.404-2.332z" fill="#fff" stroke="#686B7A" stroke-miterlimit="10"/>
    <path d="M163.12 223.641c-.179.11-.266.272-.266.51 0 .865 4.13 2.466 6.532 3.4 2.402.934 7.066 2.268 7.467 2.135.093-.029.203-.308.325-.72-4.671-.939-12.131-4.409-14.058-5.325zM165.656 165.356s-.064 5.198.4 9.665c.464 4.467 2.599 24.065 2.802 27.128.198 3.069 4.798 20.196 4.798 20.196l4.398 2.332s2.199-19.064 2.199-22.261v-5.331s3.863-15.131 5.064-18.734c1.201-3.597 1.799-10.733 1.665-14.73 0 0-4.798 2.065-10.999 2.332-6.196.267-10.327-.597-10.327-.597z" fill="#686B7A" stroke="#686B7A" stroke-miterlimit="10"/>
    <path d="m190.017 137.725-1.799 14.399s-.702 10.902-.899 11.899c-.197.998-1.102 1.503-5.198 2.901-4.102 1.398-15.2.4-16.1-.499-.899-.899-1.102-9.7-1.102-9.7s-1.201 5.1-2.1 5.802-4.299.4-5.9-1.103c-1.602-1.502.301-18.698.197-20.299-.099-1.602 9.799-5.5 9.799-5.5s13.755-3.162 14.527-3.081c.772.081 8.372-1.52 8.969-.522.598.998.998 1.601.998 1.601" fill="#fff"/>
    <path d="m190.017 137.725-1.799 14.399s-.702 10.902-.899 11.899c-.197.998-1.102 1.503-5.198 2.901-4.102 1.398-15.2.4-16.1-.499-.899-.899-1.102-9.7-1.102-9.7s-1.201 5.1-2.1 5.802-4.299.4-5.9-1.103c-1.602-1.502.301-18.698.197-20.299-.099-1.602 9.799-5.5 9.799-5.5s13.755-3.162 14.527-3.081c.772.081 8.372-1.52 8.969-.522.598.998.998 1.601.998 1.601M164.925 156.725l-2.704-13.1M179.527 138.736l-6.213 18.641M177.833 150.877l-4.519 11.301" stroke="#686B7A" stroke-miterlimit="10"/>
    <path d="M156.205 157.234s-.226.279-.226.731c0 .447-.899 4.038-.505 4.769.395.731 2.019 1.683 4.659 1.793 2.634.11 3.649-.279 3.869-.952.227-.672.842-3.985.784-4.374-.058-.394-.395-.168-.395-.168s-2.524.615-5.163-.279c-2.628-.905-3.023-1.52-3.023-1.52z" fill="#fff" stroke="#686B7A" stroke-miterlimit="10"/>
    <path d="M165.986 169.152s.134 11.197.401 17.8c.266 6.596 1.334 12.334 1.734 13.662.401 1.335 9.463 12.932 11.534 15.398 2.065 2.465 6.068 6.202 6.068 6.202l4.514-2.466s-5.848-8.331-7.716-12.201c-1.868-3.864-5.135-10.263-5.135-10.263l2.066-18.466 3.399-1.868" fill="#686B7A"/>
    <path d="M165.986 169.152s.134 11.197.401 17.8c.266 6.596 1.334 12.334 1.734 13.662.401 1.335 9.463 12.932 11.534 15.398 2.065 2.465 6.068 6.202 6.068 6.202l4.514-2.466s-5.848-8.331-7.716-12.201c-1.868-3.864-5.135-10.263-5.135-10.263l2.066-18.466 3.399-1.868" stroke="#686B7A" stroke-miterlimit="10"/>
    <path d="m182.121 177.861-2.779 1.857-1.955 17.567 2.866 5.134" stroke="#686B7A" stroke-miterlimit="10"/>
    <path d="M185.793 222.038s-2.147 3.185-2.959 3.922c-.812.742-3.997 2.662-4.438 3.109-.447.447 1.996.812 3.777.812 1.775 0 3.997-.371 5.105-1.038 1.108-.667 5.256-3.626 5.773-4.142.516-.517-2.814-4.961-2.814-4.961l-4.444 2.298z" fill="#fff" stroke="#686B7A" stroke-miterlimit="10"/>
    <path d="M193.045 224.705c.174-.174-.093-.806-.528-1.566-1.619 1.705-5.204 5.331-6.724 5.784-1.671.493-5.924.162-7.275.04-.053.041-.093.082-.122.111-.447.446 1.996.812 3.777.812 1.775 0 3.997-.371 5.105-1.039 1.102-.667 5.251-3.626 5.767-4.142z" fill="#686B7A" stroke="#686B7A" stroke-miterlimit="10"/>
    <path d="m82.163 93.76-.168-4.772 4.154-.28c1.947-.113 3.537-.674 4.772-1.685 1.273-1.01 1.91-2.49 1.91-4.435 0-1.647-.58-3.014-1.741-4.099-1.16-1.086-2.676-1.628-4.548-1.628-1.31 0-2.451.337-3.425 1.01-.935.637-1.59 1.441-1.965 2.415l-6.737-1.91c.749-2.47 2.17-4.453 4.267-5.95 2.133-1.498 4.754-2.246 7.86-2.246 2.62 0 4.94.542 6.962 1.628 2.021 1.048 3.593 2.508 4.716 4.38 1.16 1.833 1.74 3.967 1.74 6.4 0 2.245-.542 4.21-1.628 5.895-1.085 1.684-2.601 2.994-4.547 3.93-1.947.898-4.211 1.347-6.794 1.347h-4.828zm3.65 17.236c-1.236 0-2.303-.43-3.2-1.291-.862-.898-1.292-1.984-1.292-3.256 0-1.235.43-2.283 1.291-3.144.898-.899 1.965-1.348 3.2-1.348s2.284.449 3.144 1.348c.899.861 1.348 1.909 1.348 3.144 0 1.272-.45 2.358-1.348 3.256-.86.861-1.909 1.291-3.144 1.291zm-3.538-12.127-.168-8.365h7.41l-.168 8.365h-7.074z" fill="#9B9CA7"/>
</svg>
