<svg width="20" height="20" viewBox="0 0 20 20" fill="none" xmlns="http://www.w3.org/2000/svg">
    <g clip-path="url(#settings-clip)">
        <path fill-rule="evenodd" clip-rule="evenodd" d="M10 13.333a3.333 3.333 0 1 0 0-6.666 3.333 3.333 0 0 0 0 6.666zm0 1.667a5 5 0 1 0 0-10 5 5 0 0 0 0 10z" fill="#1D2138"/>
        <path fill-rule="evenodd" clip-rule="evenodd" d="M17.917 10.75c0 .138.112.25.25.25h1.333a.25.25 0 0 0 .25-.25v-1.5a.25.25 0 0 0-.25-.25h-1.333a.25.25 0 0 0-.25.25v1.5zM.75 10.75c0 .138.112.25.25.25h1.333a.25.25 0 0 0 .25-.25v-1.5a.25.25 0 0 0-.25-.25H1a.25.25 0 0 0-.25.25v1.5zM10 2.917c0 .138.112.25.25.25h1.5a.25.25 0 0 0 .25-.25V1.25a.25.25 0 0 0-.25-.25h-1.5a.25.25 0 0 0-.25.25v1.667zM10 17.083c0 .138.112.25.25.25h1.5a.25.25 0 0 0 .25-.25v-1.5a.25.25 0 0 0-.25-.25h-1.5a.25.25 0 0 0-.25.25v1.5zM15.657 4.343a.25.25 0 0 0 0 .354l1.06 1.06a.25.25 0 0 0 .354 0l1.06-1.06a.25.25 0 0 0 0-.354l-1.06-1.06a.25.25 0 0 0-.354 0l-1.06 1.06zM4.343 15.657a.25.25 0 0 0 0 .354l1.06 1.06a.25.25 0 0 0 .354 0l1.06-1.06a.25.25 0 0 0 0-.354l-1.06-1.06a.25.25 0 0 0-.354 0l-1.06 1.06zM15.657 15.657a.25.25 0 0 0 0 .354l1.06 1.06a.25.25 0 0 0 .354 0l1.06-1.06a.25.25 0 0 0 0-.354l-1.06-1.06a.25.25 0 0 0-.354 0l-1.06 1.06zM4.343 4.343a.25.25 0 0 0 0 .354l1.06 1.06a.25.25 0 0 0 .354 0l1.06-1.06a.25.25 0 0 0 0-.354l-1.06-1.06a.25.25 0 0 0-.354 0l-1.06 1.06z" fill="#1D2138"/>
    </g>
    <defs>
        <clipPath id="settings-clip">
            <path fill="#fff" d="M0 0h20v20H0z"/>
        </clipPath>
    </defs>
</svg>
