<svg width="20" height="20" viewBox="0 0 20 20" fill="none" xmlns="http://www.w3.org/2000/svg">
    <g clip-path="url(#53qigcpm4a)">
        <path fill-rule="evenodd" clip-rule="evenodd" d="M16.114 14.147c-.766 0-1.456.296-1.98.773l-7.18-4.172c.056-.226.091-.462.091-.703 0-.24-.035-.477-.09-.703l7.103-4.131a3.02 3.02 0 0 0 5.078-2.199A3.02 3.02 0 0 0 16.114 0a3.02 3.02 0 0 0-3.023 3.012c0 .241.035.477.09.703L6.079 7.846A3.02 3.02 0 0 0 1 10.045a3.02 3.02 0 0 0 5.078 2.199l7.18 4.172c-.051.21-.081.431-.081.657A2.932 2.932 0 0 0 16.114 20a2.932 2.932 0 0 0 2.937-2.927 2.932 2.932 0 0 0-2.937-2.926z" fill="#1D2138"/>
    </g>
    <defs>
        <clipPath id="53qigcpm4a">
            <path fill="#fff" d="M0 0h20v20H0z"/>
        </clipPath>
    </defs>
</svg>
