<svg width="32" height="33" viewBox="0 0 32 33" fill="none" xmlns="http://www.w3.org/2000/svg">
    <path d="m22.533 32.001-6.11-3.273L10.311 32V21.635h12.22V32z" fill="#FF8963"/>
    <path d="M16.421 21.635v7.092l6.111 3.274V21.635h-6.11z" fill="#FFA68A"/>
    <path d="m3 12.768 2.21-3.643.353-4.247 3.932-1.645L12.273 0l4.149.983L20.57 0l2.778 3.233 3.932 1.645.353 4.247 2.21 3.643-2.21 3.643-.353 4.247-3.932 1.645-2.778 3.233-4.148-.983-4.149.983-2.778-3.233-3.932-1.645-.353-4.247L3 12.768z" fill="#FF6B3C"/>
    <path d="m27.633 9.125-.353-4.247-3.932-1.645L20.57 0 16.42.983v23.57l4.149.983 2.778-3.233 3.932-1.645.353-4.247 2.21-3.643-2.21-3.643z" fill="#FF6B3C"/>
    <path d="M16.424 21.289a8.521 8.521 0 1 0 0-17.043 8.521 8.521 0 0 0 0 17.043z" fill="#fff"/>
    <path d="M16.421 4.246V21.29a8.521 8.521 0 1 0 0-17.043z" fill="#fff"/>
    <path d="M15.453 16.93a.942.942 0 0 1-.67-.278l-2.528-2.529a.948.948 0 0 1 1.34-1.34l1.858 1.857 4.387-4.386a.949.949 0 0 1 1.34 1.34l-5.057 5.058a.94.94 0 0 1-.67.278z" fill="#1D2138"/>
</svg>
