<?xml version="1.0" encoding="UTF-8"?>
<svg version="1.1" xmlns="http://www.w3.org/2000/svg" width="512" height="512">
<path d="M0 0 C0.89115509 -0.00974854 1.78231018 -0.01949707 2.70046997 -0.02954102 C22.6295645 -0.20261362 41.87011372 0.05359185 61.4453125 4.23828125 C62.34491699 4.42551758 63.24452148 4.61275391 64.17138672 4.80566406 C116.97952193 16.09453624 167.17294301 46.51968752 200.4453125 89.23828125 C201.59193359 90.64207031 201.59193359 90.64207031 202.76171875 92.07421875 C220.75223831 114.54071028 233.99379831 140.78243754 242.4453125 168.23828125 C242.67798828 168.98062012 242.91066406 169.72295898 243.15039062 170.48779297 C261.79871255 230.74949993 254.5637808 297.15430696 225.6953125 352.98828125 C217.84211006 367.6680928 208.39313607 381.6942913 197.4453125 394.23828125 C196.46569262 395.39825948 195.4879546 396.55982859 194.51171875 397.72265625 C174.07492392 421.97731385 149.4441462 440.52365652 121.4453125 455.23828125 C120.7946582 455.58600586 120.14400391 455.93373047 119.47363281 456.29199219 C98.17534306 467.53915705 74.07459363 474.21109501 50.4453125 478.23828125 C49.16914063 478.4703125 47.89296875 478.70234375 46.578125 478.94140625 C9.21665098 484.87179895 -29.8910664 480.29760199 -65.5546875 468.23828125 C-66.2254834 468.01591797 -66.8962793 467.79355469 -67.58740234 467.56445312 C-96.95571596 457.6989379 -124.73306305 441.36567004 -147.41015625 420.23046875 C-149.34686182 418.43134336 -151.33617486 416.74118929 -153.3671875 415.05078125 C-192.43115648 380.86980839 -217.37256276 328.79816931 -225.5546875 278.23828125 C-225.76738281 276.95953125 -225.98007813 275.68078125 -226.19921875 274.36328125 C-231.65573879 236.67796297 -227.70375755 198.23641686 -215.5546875 162.23828125 C-215.3376416 161.57812012 -215.1205957 160.91795898 -214.89697266 160.23779297 C-206.14590297 133.93077257 -192.28819346 109.47883276 -174.5546875 88.23828125 C-174.08063477 87.66271484 -173.60658203 87.08714844 -173.11816406 86.49414062 C-162.68210642 73.84817632 -151.51322527 62.32522159 -138.5546875 52.23828125 C-137.58402344 51.45066406 -136.61335938 50.66304687 -135.61328125 49.8515625 C-98.20139134 20.02506203 -48.05554966 0.43830457 0 0 Z M-62.5546875 29.23828125 C-63.76584229 29.67696533 -63.76584229 29.67696533 -65.00146484 30.12451172 C-91.83467057 40.01483867 -116.10960223 54.62008574 -137.1484375 74.01953125 C-139.64491489 76.32147793 -142.19238819 78.55818667 -144.7421875 80.80078125 C-149.0543529 84.69844393 -152.87771557 88.74257999 -156.5546875 93.23828125 C-156.98507324 93.75632324 -157.41545898 94.27436523 -157.85888672 94.80810547 C-188.53597687 131.80137266 -210.48284808 179.54438324 -210.7578125 228.3125 C-210.76487213 229.15042084 -210.77193176 229.98834167 -210.77920532 230.85165405 C-211.02446732 256.69312165 -211.02446732 256.69312165 -207.5546875 282.23828125 C-207.36664551 283.1617334 -207.17860352 284.08518555 -206.98486328 285.03662109 C-200.90027855 314.10418775 -189.22930003 343.21350852 -171.5546875 367.23828125 C-170.95599854 368.05256592 -170.95599854 368.05256592 -170.34521484 368.88330078 C-167.78092652 372.36011936 -165.18173872 375.80851994 -162.5546875 379.23828125 C-159.33609463 376.19731746 -157.25724758 372.63175453 -154.9921875 368.86328125 C-147.94284805 357.37999438 -139.83640123 347.0233096 -130.5546875 337.23828125 C-130.09787598 336.7489209 -129.64106445 336.25956055 -129.17041016 335.75537109 C-116.98990112 322.77441706 -103.06490996 311.99122846 -87.5546875 303.23828125 C-86.8937207 302.85607422 -86.23275391 302.47386719 -85.55175781 302.08007812 C-70.17126015 293.24521784 -53.66891023 286.8794264 -36.5546875 282.23828125 C-39.22525701 279.20784777 -42.52164353 277.32123245 -45.9296875 275.23828125 C-72.11318132 258.72847522 -87.62136044 234.67032272 -94.79296875 204.89453125 C-100.75990835 176.25322118 -94.80401942 146.96709089 -79.5546875 122.23828125 C-63.67290813 98.19397652 -39.1264911 81.69697086 -11.1171875 75.42578125 C-8.93372582 75.00824639 -6.74648453 74.60958441 -4.5546875 74.23828125 C-3.79285156 74.10679688 -3.03101563 73.9753125 -2.24609375 73.83984375 C26.32675268 69.84288603 55.91541056 77.86207252 78.8203125 95.140625 C102.01447056 113.67524238 116.43714054 137.78511283 121.05859375 167.1328125 C124.26742784 196.39174227 117.81191441 226.17837999 99.4453125 249.55078125 C98.12103285 251.12096195 96.78795931 252.68377696 95.4453125 254.23828125 C94.54232422 255.35783203 94.54232422 255.35783203 93.62109375 256.5 C84.81877792 267.07385109 73.19814312 274.35200734 61.4453125 281.23828125 C64.20514584 283.07817015 66.13004158 283.88071699 69.25 284.83203125 C100.47553183 294.62388277 126.84513451 309.63398908 150.4453125 332.23828125 C150.94949707 332.71523438 151.45368164 333.1921875 151.97314453 333.68359375 C163.39532844 344.5294123 172.21443269 356.47645394 180.42382812 369.87915039 C180.90400391 370.6602417 181.38417969 371.44133301 181.87890625 372.24609375 C182.30228271 372.9436377 182.72565918 373.64118164 183.16186523 374.35986328 C184.43417875 376.2219862 185.8001695 377.70257459 187.4453125 379.23828125 C216.19121189 344.38705809 235.23465194 296.79308298 235.68359375 251.3046875 C235.6933876 250.47761292 235.70318146 249.65053833 235.71327209 248.79840088 C236.08766276 208.95316994 229.48380769 171.61720992 210.46630859 136.14453125 C209.78382972 134.87030957 209.10969213 133.59158613 208.44384766 132.30859375 C200.13420562 116.30781373 189.47973685 101.88981874 176.9921875 88.90234375 C174.96086524 86.77755575 173.05621841 84.63438685 171.1953125 82.36328125 C167.97574458 78.55749142 164.25682452 75.43503327 160.4453125 72.23828125 C159.59324219 71.49835938 158.74117188 70.7584375 157.86328125 69.99609375 C137.75800636 52.77871744 115.2133846 39.59047428 90.4453125 30.23828125 C89.71957031 29.96290527 88.99382812 29.6875293 88.24609375 29.40380859 C71.33511216 23.10773174 53.37596271 19.1852963 35.4453125 17.23828125 C34.445 17.12742187 33.4446875 17.0165625 32.4140625 16.90234375 C0.38822878 13.910031 -32.34448959 18.28446815 -62.5546875 29.23828125 Z M-53.5546875 117.23828125 C-54.20953125 117.8209375 -54.864375 118.40359375 -55.5390625 119.00390625 C-70.00932241 132.14661938 -79.52838716 155.02103445 -80.67895508 174.32299805 C-81.63266552 202.30539402 -73.94821883 225.89439411 -55.125 246.95703125 C-37.94308526 265.10765929 -14.72400685 275.37721772 10.2734375 276.234375 C36.56502139 276.57445899 60.22004458 266.06048171 79.1328125 247.98828125 C97.74053623 228.71121494 106.01283779 204.77936942 105.66015625 178.234375 C105.01093062 157.22930479 96.47065204 136.82733789 82.4453125 121.23828125 C82.01621582 120.76003906 81.58711914 120.28179687 81.14501953 119.7890625 C65.2557203 102.33495054 43.22036811 91.10395704 19.4765625 89.33203125 C18.80625 89.30109375 18.1359375 89.27015625 17.4453125 89.23828125 C16.754375 89.18671875 16.0634375 89.13515625 15.3515625 89.08203125 C-10.99365034 87.99935127 -35.15299385 99.05696716 -53.5546875 117.23828125 Z M-25.5546875 296.23828125 C-26.81804932 296.55224854 -26.81804932 296.55224854 -28.10693359 296.87255859 C-57.27788455 304.30066342 -84.0608087 317.13340751 -106.5546875 337.23828125 C-107.99175077 338.46795848 -109.42918792 339.69719908 -110.8671875 340.92578125 C-125.38074125 353.8065602 -143.23377108 373.501279 -149.5546875 392.23828125 C-146.99723692 401.41608262 -132.71526362 410.70851697 -125.5546875 416.23828125 C-125.01392578 416.66077148 -124.47316406 417.08326172 -123.91601562 417.51855469 C-77.92620288 453.25070772 -18.22838841 469.58657035 39.52734375 462.5234375 C91.88167839 455.53311234 137.48280021 431.53989915 174.4453125 394.23828125 C172.93468796 388.84441284 170.42518446 384.46284795 167.5078125 379.73828125 C167.02054687 378.94728027 166.53328125 378.1562793 166.03125 377.34130859 C139.64765575 335.26490169 98.37239422 307.91234126 50.4453125 296.23828125 C49.7327832 296.05894043 49.02025391 295.87959961 48.28613281 295.69482422 C25.78043539 290.30138364 -3.14272995 290.56379636 -25.5546875 296.23828125 Z " fill="#000000" transform="translate(243.5546875,15.76171875)"/>
<path d="M0 0 C1.90234375 0.3828125 1.90234375 0.3828125 4.33984375 2.0078125 C6.3150597 5.01014075 6.71419681 6.77457221 6.90234375 10.3828125 C5.99147026 13.30030766 4.63912033 15.96464514 3.27734375 18.6953125 C-9.83527538 46.59328331 -11.169939 75.65872552 -2.67578125 105.1171875 C-1.84986793 108.35387485 -1.62517241 111.07542561 -2.09765625 114.3828125 C-4.25241246 117.65804195 -5.76179855 118.28510844 -9.53515625 119.3828125 C-13.99486012 119.3828125 -14.98254336 118.49294121 -18.09765625 115.3828125 C-30.81974771 87.91924999 -28.66362218 51.47877292 -18.90136719 23.51660156 C-17.43693279 19.62864389 -15.77714519 15.84104918 -14.03515625 12.0703125 C-13.70684814 11.3585083 -13.37854004 10.6467041 -13.0402832 9.91333008 C-9.99126415 3.61811446 -7.44524715 -0.4159356 0 0 Z " fill="#000000" transform="translate(78.09765625,180.6171875)"/>
<path d="M0 0 C2.4375 1.0625 2.4375 1.0625 4 3 C5.10373378 6.97344161 5.41543583 9.08999772 3.6875 12.875 C2 15 2 15 0 16 C-7.0521327 16.56872038 -7.0521327 16.56872038 -10.5 14.5 C-12.62153384 10.96411027 -12.791013 8.02098277 -12 4 C-9.12138907 -0.79768489 -5.11359841 -0.84001617 0 0 Z " fill="#000000" transform="translate(97,144)"/>
</svg>
