<svg width="80" height="80" viewBox="0 0 80 80" fill="none" xmlns="http://www.w3.org/2000/svg">
    <g clip-path="url(#bdh9r0u0ga)">
        <path d="M70 10V0H0v70h10v10h70V10H70zm-5 55H5V5h60v60z" fill="#FF6B3C"/>
        <path d="M44.306 40.028v-5.585l6.297-6.943h5.24L44.305 40.028zm-2.242 2.566V27.5h3.989v15.094h-3.989zm9.013 0-5.843-7.677 2.997-2.328 7.805 10.005h-4.959zM31.749 42.594V38.82c.632 0 1.214-.093 1.746-.28a4.303 4.303 0 0 0 1.38-.776c.388-.33.69-.726.906-1.186.216-.46.323-.97.323-1.531 0-.56-.107-1.071-.323-1.531a3.482 3.482 0 0 0-.906-1.186 4.301 4.301 0 0 0-1.38-.776 5.235 5.235 0 0 0-1.746-.28V27.5c1.653 0 3.112.323 4.377.97 1.28.647 2.278 1.538 2.997 2.674.719 1.121 1.078 2.422 1.078 3.903 0 1.466-.36 2.767-1.078 3.903-.719 1.135-1.718 2.027-2.997 2.673-1.265.647-2.724.97-4.377.97zm-3.127 0V38.82h3.127v3.774h-3.127zm-1.919 0V27.5h3.99v15.094h-3.99zm1.92-11.32V27.5h3.126v3.773h-3.127zM16.77 42.594V28.75h3.988v13.843H16.77zM12.5 31.166V27.5h12.506v3.666H12.5z" fill="#fff"/>
    </g>
    <defs>
        <clipPath id="bdh9r0u0ga">
            <path fill="#fff" d="M0 0h80v80H0z"/>
        </clipPath>
    </defs>
</svg>
