<svg width="28" height="28" viewBox="0 0 28 28" fill="none" xmlns="http://www.w3.org/2000/svg">
    <g clip-path="url(#p12lbyapqa)">
        <path d="M24.5 3.5V0H0v24.5h3.5V28H28V3.5h-3.5zm-1.75 19.25h-21v-21h21v21z" fill="#FF6B3C"/>
        <path d="M15.508 14.01v-1.955l2.203-2.43h1.834l-4.038 4.385zm-.785.898V9.625h1.396v5.283h-1.396zm3.154 0-2.045-2.687 1.05-.815 2.731 3.502h-1.736zM11.112 14.908v-1.32c.222 0 .425-.034.611-.099.187-.065.348-.156.483-.272a1.218 1.218 0 0 0 .43-.95 1.218 1.218 0 0 0-.43-.95 1.507 1.507 0 0 0-.482-.273 1.833 1.833 0 0 0-.612-.098V9.625c.579 0 1.09.113 1.532.34.448.226.798.538 1.05.935.25.393.376.848.376 1.366a2.5 2.5 0 0 1-.377 1.366c-.251.398-.601.71-1.049.936-.443.227-.953.34-1.532.34zm-1.094 0v-1.32h1.094v1.32h-1.094zm-.672 0V9.625h1.396v5.283H9.346zm.672-3.962V9.625h1.094v1.32h-1.094zM5.87 14.908v-4.845h1.395v4.845H5.87zm-1.495-4V9.625h4.377v1.283H4.375z" fill="#040822"/>
    </g>
    <defs>
        <clipPath id="p12lbyapqa">
            <path fill="#fff" d="M0 0h28v28H0z"/>
        </clipPath>
    </defs>
</svg>
