<svg width="20" height="20" viewBox="0 0 20 20" fill="none" xmlns="http://www.w3.org/2000/svg">
    <path d="M0 0v18.332h1.667V20h1.666l.834-1.667h11.666L16.666 20h1.666v-1.667H20V0H0zm1.667 16.666v-15h16.666v2.5h-1.667v1.667h1.667V12.5h-1.667v1.667h1.667v2.5H1.667z" fill="#1D2138"/>
    <path d="M10.624 7.708a.625.625 0 1 0 0-1.25.625.625 0 0 0 0 1.25zM5.833 6.667a2.503 2.503 0 0 0-2.5 2.5 2.5 2.5 0 1 0 2.5-2.5zm0 3.333a.834.834 0 1 1 0-1.667.834.834 0 0 1 0 1.667zM12.707 7.708a.625.625 0 1 0 0-1.25.625.625 0 0 0 0 1.25zM14.79 7.708a.625.625 0 1 0 0-1.25.625.625 0 0 0 0 1.25zM10.624 9.792a.625.625 0 1 0 0-1.25.625.625 0 0 0 0 1.25zM12.707 9.792a.625.625 0 1 0 0-1.25.625.625 0 0 0 0 1.25zM14.79 9.792a.625.625 0 1 0 0-1.25.625.625 0 0 0 0 1.25zM10.624 11.874a.625.625 0 1 0 0-1.25.625.625 0 0 0 0 1.25zM12.707 11.874a.625.625 0 1 0 0-1.25.625.625 0 0 0 0 1.25zM14.79 11.874a.625.625 0 1 0 0-1.25.625.625 0 0 0 0 1.25z" fill="#1D2138"/>
</svg>
